<?xml version="1.0" encoding="utf-8"?>
<!-- Generator: Adobe Illustrator 24.2.1, SVG Export Plug-In . SVG Version: 6.00 Build 0)  -->
<svg version="1.1" id="Layer_1" xmlns="http://www.w3.org/2000/svg" xmlns:xlink="http://www.w3.org/1999/xlink" x="0px" y="0px"
	 viewBox="0 0 254.3 61.4" style="enable-background:new 0 0 254.3 61.4;" xml:space="preserve">
<style type="text/css">
	.st0{fill:#FFFFFF;}
</style>
<g id="TakeawayCOM_Full_Colour">
	<g id="House">
		<path class="st0" d="M28.5,0.6c1.2-0.8,2.7-0.8,3.9,0c3,1.9,5.9,4,8.7,6.2c0,0,0.8,0.5,0.8-0.4c-0.1-1.1,0-2.3,0.2-3.4
			c0.2-0.6,0.8-1,1.4-1c0,0,3.4,0.2,5.6,0.5c1,0.1,1.7,0.9,1.8,1.9c0,0,1.4,9.3,1.7,12.6c0,0,0.3,1.7,2.7,4.6c0,0,5,7,5.6,8.3
			c0,0,1.2,2.4-1.3,2.7c0,0-4.6,0.5-5,0.6c-0.6,0.1-1.1,0.6-1,1.2l0,0c0,0-0.2,16.1-1.4,23.8c0,0-0.3,3.1-2,3c0,0-4.7-0.1-5.8-0.1
			c0,0-0.5,0-0.4-0.6c0,0,2.4-25.1,0.8-37.8c0,0-0.1-1.6-1.3-2c0,0-1.1-0.5-2.2,1c-4.7,6.6-7.3,14.5-7.4,22.7c0,0-0.1,4,0.5,5
			c0,0,0.4,0.7,2.3,0.9l2.5,0.3c0,0,0.4,0,0.4,0.6c0,0-0.6,7.4-0.7,8.7c0,0.3-0.1,0.6-0.2,0.9c0,0-0.1,0.3-0.9,0.2
			c0,0-10.8-0.1-12.1,0c0,0-0.5,0-0.6-0.3s-0.8-9.5-0.7-10.8c0-0.3,0.1-0.5,0.4-0.6c1.7-1.1,2.8-2.8,3-4.8c0.1-1.4,0.2-2.8,0.1-4.2
			c0,0,0.4-14.1,0.5-16.4c0,0,0.1-0.8-0.9-0.9c-0.5-0.1-1,0.2-1.1,0.7c0,0,0,0,0,0c0,0,0,0,0,0.1s-0.7,9.3-0.6,13
			c0,0,0.2,2.4-1.4,2.5c0,0-1.6,0.2-1.7-1.8c0,0,0.1-9.1,0.5-13.5c0-0.5-0.4-0.9-0.9-1c-0.5-0.1-1,0.3-1.1,0.8c0,0,0,0.1,0,0.1
			c0,0-0.7,8.7-0.6,13.2c0,0,0.2,2.2-1.6,2.1c0,0-1.5,0.2-1.6-1.8c0,0,0.4-12.4,0.5-13.4c0-0.5-0.4-0.9-0.9-0.9h-0.1
			c-0.5,0-1,0.3-1.1,0.8c0,0,0,0.1,0,0.1c0,0-0.7,14.8-0.6,19.2c0,0-0.1,4.5,3.3,6.3c0,0,0.5,0.3,0.5,0.7c0,0,0.4,7.9,0.7,10.4
			c0,0,0.1,0.6-0.4,0.6l-8.3,0.2c-0.9,0-1.7-0.7-1.7-1.6c-1.1-8.3-1.6-16.7-1.5-25.2c0.1-0.6-0.4-1.2-1-1.4c0,0-4.3-0.4-5.3-0.7
			c-0.9-0.2-1.5-1.2-1.3-2.1c0-0.2,0.1-0.3,0.2-0.5C7.2,18.1,16.9,8,28.5,0.6z"/>
	</g>
</g>
<path class="st0" d="M87.2,23.9H79c-2.7,0-2.7,0-3.2,3.1s-0.6,3.2,1.9,3.2h4.9l-2.8,15.9c-0.7,3.6-2.2,6-7,7.4
	c-1.2,0.3-1.6,0.8-1.6,1.3c0.1,0.9,0.4,1.8,0.8,2.6c0.8,1.9,1.2,2.2,1.9,2.2c0.8-0.1,1.6-0.2,2.3-0.4c6.8-2.2,9.6-7.4,10.7-13.7
	L90,27.7C90.5,23.9,90.5,23.9,87.2,23.9"/>
<path class="st0" d="M115.1,23.9c-3.3,0-3.3,0-3.8,2.8l-2.4,14.4c-0.7,4.2-1.8,6.7-5.9,6.7s-5.4-2.4-4.8-6.2l2.3-13.8
	c0.7-3.9,0.6-3.9-2.9-3.9s-3.4,0-3.9,2.7L91.3,41c-1.4,8.2,3.7,13.3,10.9,13.3c8.1,0,12.2-3.7,13.5-12.3l2.4-14.3
	C118.8,23.9,118.5,23.9,115.1,23.9"/>
<path class="st0" d="M130.3,47.6c2.7-0.1,4.1-1.3,4.1-2.6c0-1.6-1.9-2.1-4.4-2.9c-5-1.6-9.6-3.3-9.6-8.7c0-6.3,5.2-9.8,11.8-9.8
	c2.6,0,5.3,0.1,7.9,0.3c1.8,0.2,2.2,0.8,1.7,3.6s-1.2,3-2.8,2.9c-1.9-0.1-4.3-0.3-7.2-0.3c-3.3,0-4.3,1.2-4.3,2.3
	c0,1.4,1.3,2.2,4.4,3.1c5.8,1.7,9.6,4,9.6,9c0,5.9-4.3,9.3-11.3,9.6c-3.3,0.1-6.7-0.1-10-0.6c-2.2-0.3-2.3-0.3-1.8-3.6
	c0.6-2.9,0.6-3.1,2.7-2.9C124,47.5,127.1,47.7,130.3,47.6"/>
<path class="st0" d="M166.6,23.9h-18.8c-2.7,0-2.7,0-3.2,3.2s-0.4,3.2,1.9,3.2h6.1l-3.4,19.9c-0.7,3.9-0.6,3.9,2.9,3.9
	c3.2,0,3.3,0,3.8-2.8l3.6-21h5.9c2.7,0,2.7,0,3.2-3.2S169,23.9,166.6,23.9"/>
<path class="st0" d="M199.7,30.3c2.7,0,2.7,0,3.2-3.2s0.5-3.2-1.9-3.2h-13.4c-4.8,0-4.7,0-5.4,4.8l-3.4,20.1c-0.9,5.2-0.8,5.2,4,5.2
	h13.1c2.8,0,2.7,0,3.2-3.1s0.6-3.2-1.9-3.2h-11.3l0.9-5.8h9.4c2.6,0,2.6,0,3-3s0.4-3.1-3-3.1h-8.3l0.9-5.4L199.7,30.3z"/>
<path class="st0" d="M213.9,40.9l4.3-9.6c0.3-0.8,0.3-0.8,0.9-0.8s0.6,0,0.7,0.9l1.3,9.4H213.9z M225.7,27.6c-0.7-3.8-0.7-3.8-6-3.8
	c-5,0-4.9,0-6.4,3.1L202,50.3c-1.7,3.3-1.3,3.7,2.8,3.7c3.2,0,3.2,0,4.6-3l1.8-4H222l0.5,4c0.5,3,0.6,3,3.8,3c3.7,0,4-0.2,3.3-3.9
	L225.7,27.6z"/>
<path class="st0" d="M252.2,23.9h-18.9c-2.7,0-2.7,0-3.2,3.2s-0.5,3.2,1.9,3.2h6.1l-3.4,19.9c-0.7,3.9-0.6,3.9,2.9,3.9
	c3.2,0,3.3,0,3.8-2.8l3.6-21h5.9c2.7,0,2.7,0,3.2-3.2S254.7,23.9,252.2,23.9"/>
</svg>
