<?xml version="1.0" encoding="utf-8"?>
<!-- Generator: Adobe Illustrator 24.1.1, SVG Export Plug-In . SVG Version: 6.00 Build 0)  -->
<svg version="1.1" id="Layer_1" xmlns="http://www.w3.org/2000/svg" xmlns:xlink="http://www.w3.org/1999/xlink" x="0px" y="0px"
	 viewBox="0 0 64 59.3" style="enable-background:new 0 0 64 59.3;" xml:space="preserve">
<style type="text/css">
	.st0{fill-rule:evenodd;clip-rule:evenodd;fill:#F58020;}
</style>
<g>
	<path class="st0" d="M61.3,24.4c-2.3-1.7-3.3-4.5-2.4-7.1c1.3-4.2-1.9-8.4-6.4-8.4c-2.9,0-5.4-1.8-6.3-4.4
		c-1.5-4.1-6.6-5.7-10.3-3.2h0c-2.3,1.6-5.5,1.6-7.8,0c-3.7-2.5-8.8-0.9-10.3,3.2c-0.9,2.6-3.4,4.4-6.3,4.4C7,8.9,3.8,13.1,5.1,17.3
		C6,19.9,5,22.8,2.7,24.4c-3.6,2.6-3.6,7.8,0,10.4C5,36.5,6,39.4,5.1,42c-1.3,4.2,1.9,8.4,6.4,8.4c2.9,0,5.4,1.8,6.3,4.4
		c1.5,4.1,6.6,5.7,10.3,3.2c2.3-1.6,5.5-1.6,7.8,0h0c3.7,2.5,8.8,0.9,10.3-3.2c0.9-2.6,3.4-4.4,6.3-4.4c4.5-0.1,7.7-4.3,6.4-8.4
		c-0.8-2.6,0.1-5.5,2.4-7.1C64.9,32.2,64.9,27,61.3,24.4z M47.6,21.2L29.5,39.3c-0.5,0.5-1.1,0.7-1.8,0.7s-1.3-0.2-1.8-0.7l-9.5-9.5
		c-1-1-1-2.6,0-3.5s2.6-1,3.5,0l7.8,7.8l16.3-16.3c1-1,2.6-1,3.5,0S48.6,20.2,47.6,21.2z"/>
</g>
</svg>
