<?xml version="1.0" encoding="utf-8"?>
<!-- Generator: Adobe Illustrator 24.1.1, SVG Export Plug-In . SVG Version: 6.00 Build 0)  -->
<svg version="1.1" id="Layer_1" xmlns="http://www.w3.org/2000/svg" xmlns:xlink="http://www.w3.org/1999/xlink" x="0px" y="0px"
	 viewBox="0 0 64 46.8" style="enable-background:new 0 0 64 46.8;" xml:space="preserve">
<style type="text/css">
	.st0{fill:#D7D7D7;}
</style>
<g>
	<path class="st0" d="M37.3,33.4c-1.5,1.3-3.5,2-5.4,2s-3.8-0.7-5.3-2L0,9.8V42c0,2.2,1.8,4,4,4h56c2.2,0,4-1.8,4-4V9L37.3,33.4z"/>
	<path class="st0" d="M30.2,29.5c1,0.9,2.6,0.9,3.6,0L62.6,3.1c0.1-0.1,0.1-0.2,0-0.3c-1.1-1.3-2.7-2.1-4.4-2.1H5.9
		C3.8,0.7,2,1.8,1,3.4c0,0.1,0,0.2,0,0.2L30.2,29.5z"/>
</g>
</svg>
