<?xml version="1.0" encoding="utf-8"?>
<!-- Generator: Adobe Illustrator 23.0.6, SVG Export Plug-In . SVG Version: 6.00 Build 0)  -->
<svg version="1.1" id="Layer_1" xmlns="http://www.w3.org/2000/svg" xmlns:xlink="http://www.w3.org/1999/xlink" x="0px" y="0px"
	 viewBox="0 0 37.9 37.9" style="enable-background:new 0 0 37.9 37.9;" xml:space="preserve">
<style type="text/css">
	.st0{fill:#FFFFFF;}
</style>
<g>
	<path class="st0" d="M36.8,31.1L24.6,19L36.8,6.8c1.6-1.6,1.6-4.1,0-5.7c-1.6-1.6-4.1-1.6-5.7,0L19,13.3L6.8,1.2
		c-1.6-1.6-4.1-1.6-5.7,0c-1.6,1.6-1.6,4.1,0,5.7L13.3,19L1.2,31.1c-1.6,1.6-1.6,4.1,0,5.7C2,37.6,3,37.9,4,37.9s2-0.4,2.8-1.2
		L19,24.6l12.1,12.1c0.8,0.8,1.8,1.2,2.8,1.2s2-0.4,2.8-1.2C38.3,35.2,38.3,32.7,36.8,31.1z"/>
</g>
</svg>
