<?xml version="1.0" encoding="utf-8"?>
<!-- Generator: Adobe Illustrator 24.1.1, SVG Export Plug-In . SVG Version: 6.00 Build 0)  -->
<svg version="1.1" id="Layer_1" xmlns="http://www.w3.org/2000/svg" xmlns:xlink="http://www.w3.org/1999/xlink" x="0px" y="0px"
	 viewBox="0 0 57 49.1" style="enable-background:new 0 0 57 49.1;" xml:space="preserve">
<style type="text/css">
	.st0{fill:#F58020;}
</style>
<g>
	<path class="st0" d="M56.9,14c-0.5-4.7-3.1-8.8-7.1-11.5C44.7-0.8,38.1-0.9,33,2.3c-1.8,1.1-3.3,2.5-4.5,4.1
		c-1.2-1.6-2.7-3-4.5-4.1C18.9-0.9,12.3-0.8,7.2,2.6C3.2,5.2,0.6,9.4,0.1,14c-0.5,4.7,1,9.3,4.3,12.8l21,21c0.8,0.8,2,1.3,3.1,1.3
		c1.2,0,2.3-0.5,3.1-1.3l21-21C55.9,23.4,57.4,18.7,56.9,14z"/>
</g>
</svg>
