<?xml version="1.0" encoding="utf-8"?>
<!-- Generator: Adobe Illustrator 23.0.2, SVG Export Plug-In . SVG Version: 6.00 Build 0)  -->
<svg version="1.1" id="Layer_1" xmlns="http://www.w3.org/2000/svg" xmlns:xlink="http://www.w3.org/1999/xlink" x="0px" y="0px"
	 viewBox="0 0 64 64" style="enable-background:new 0 0 64 64;" xml:space="preserve">
<style type="text/css">
	.st0{display:none;fill:#FF8000;}
	.st1{fill:#FF8000;}
	.st2{fill:#FFFFFF;}
</style>
<path class="st0" d="M61.6,55.8L49.4,43.5c3.2-4.4,5-9.7,5-15.5c0-14.7-11.9-26.6-26.6-26.6S1.2,13.3,1.2,28s11.9,26.6,26.6,26.6
	c6,0,11.5-2,16-5.4L56,61.4c0.8,0.8,1.8,1.2,2.8,1.2s2-0.4,2.8-1.2C63.2,59.9,63.2,57.4,61.6,55.8z M9.2,28
	c0-10.3,8.4-18.6,18.6-18.6S46.4,17.7,46.4,28S38,46.6,27.8,46.6S9.2,38.3,9.2,28z"/>
<g>
	<path class="st1" d="M27.7,0.9C20.9,2,14.8,6.1,11.1,11.9c-6.1,9.7-4.8,21.5,2,29.4L28.8,62c1.7,2,4.7,2,6.4,0l15.7-20.7
		c3.8-4.5,5.9-10.2,5.9-16.1C56.8,10.2,43.3-1.8,27.7,0.9z"/>
</g>
<g>
	<path class="st2" d="M27.3,45.5c0.6,0,1.1-0.5,1-1.1c-0.2-2.2-0.4-10.9-0.4-11.5c0,0,0-0.3,0.3-0.4c0.3-0.1,1.8-1.2,2.1-3.3
		c0,0,0.1-0.5,0-2.9c0,0,0.3-9.7,0.3-11.3c0,0,0.1-0.5-0.6-0.6c0,0-0.7-0.1-0.8,0.5c0,0-0.5,6.4-0.4,9c0,0,0.2,1.7-1,1.7
		c0,0-1.1,0.2-1.2-1.2c0,0,0.1-6.2,0.4-9.3c0,0,0-0.5-0.6-0.7c0,0-0.7-0.1-0.8,0.6c0,0-0.5,6-0.4,9.1c0,0,0.1,1.5-1.1,1.5
		c0,0-1,0.1-1.1-1.2c0,0,0.3-8.5,0.4-9.2c0,0,0.1-0.7-0.7-0.8c0,0-0.7-0.1-0.7,0.6c0,0-0.5,10.2-0.4,13.2c0,0,0,3.1,2.2,4.3
		c0,0,0.3,0.2,0.3,0.5c0,0,0.2,9.1,0.4,11.6c0,0.5,0.5,1,1,1H27.3z"/>
	<path class="st2" d="M40.5,45.5c0.5,0,1-0.4,1-0.9c0.3-3.9,1.4-22.9,0.5-30.4c0,0,0-1.1-0.9-1.4c0,0-0.8-0.3-1.5,0.7
		c0,0-5.1,6.5-5.1,15.6c0,0-0.1,2.2,0.2,3.2c0.1,0.3,0.3,0.5,0.5,0.6c0.2,0.1,0.6,0.2,1.2,0.3l1.7,0.2c0,0,0.3,0,0.3,0.4
		c0,0-0.5,8.4-0.7,10.6c-0.1,0.6,0.4,1.2,1,1.2H40.5z"/>
</g>
</svg>
