<?xml version="1.0" encoding="utf-8"?>
<!-- Generator: Adobe Illustrator 24.1.1, SVG Export Plug-In . SVG Version: 6.00 Build 0)  -->
<svg version="1.1" id="Layer_1" xmlns="http://www.w3.org/2000/svg" xmlns:xlink="http://www.w3.org/1999/xlink" x="0px" y="0px"
	 viewBox="0 0 186.8 280" style="enable-background:new 0 0 186.8 280;" xml:space="preserve">
<style type="text/css">
	.st0{fill:#D7D7D7;}
	.st1{fill:#FFFFFF;}
</style>
<path class="st0" d="M168.9,277h-151c-8.8,0-16-7.2-16-16V19c0-8.8,7.2-16,16-16h151c8.8,0,16,7.2,16,16v242
	C184.9,269.8,177.7,277,168.9,277z"/>
<g id="Layer_2">
	<path class="st1" d="M128.4,61h-70c-1.1,0-2-0.9-2-2V48c0-1.1,0.9-2,2-2h70c1.1,0,2,0.9,2,2v11C130.4,60.1,129.5,61,128.4,61z"/>
</g>
<g id="Layer_3">
	<path class="st1" d="M103.4,234.5h-20c-1.1,0-2-0.9-2-2v-11c0-1.1,0.9-2,2-2h20c1.1,0,2,0.9,2,2v11
		C105.4,233.6,104.5,234.5,103.4,234.5z"/>
</g>
</svg>
