<?xml version="1.0" encoding="utf-8"?>
<!-- Generator: Adobe Illustrator 23.0.1, SVG Export Plug-In . SVG Version: 6.00 Build 0)  -->
<svg version="1.1" id="Layer_1" xmlns="http://www.w3.org/2000/svg" xmlns:xlink="http://www.w3.org/1999/xlink" x="0px" y="0px"
	 viewBox="0 0 64 64" style="enable-background:new 0 0 64 64;" xml:space="preserve">
<style type="text/css">
	.st0{fill:#FF8000;}
</style>
<path class="st0" d="M61.6,55.8L49.4,43.5c3.2-4.4,5-9.7,5-15.5c0-14.7-11.9-26.6-26.6-26.6S1.2,13.3,1.2,28s11.9,26.6,26.6,26.6
	c6,0,11.5-2,16-5.4L56,61.4c0.8,0.8,1.8,1.2,2.8,1.2s2-0.4,2.8-1.2C63.2,59.9,63.2,57.4,61.6,55.8z M9.2,28
	c0-10.3,8.4-18.6,18.6-18.6S46.4,17.7,46.4,28s-8.4,18.6-18.6,18.6S9.2,38.3,9.2,28z"/>
</svg>
