<?xml version="1.0" encoding="utf-8"?>
<!-- Generator: Adobe Illustrator 24.1.1, SVG Export Plug-In . SVG Version: 6.00 Build 0)  -->
<svg version="1.1" id="Layer_1" xmlns="http://www.w3.org/2000/svg" xmlns:xlink="http://www.w3.org/1999/xlink" x="0px" y="0px"
	 viewBox="0 0 60.9 58.1" style="enable-background:new 0 0 60.9 58.1;" xml:space="preserve">
<g>
	<defs>
		<path id="SVGID_1_" d="M60.7,27.2l-8.9-25C51.3,0.9,50,0,48.5,0L22,0c-1.5,0-2.9,0.7-3.7,1.9L0.8,26.7c-1.5,2.1-1,4.9,1.1,6.4
			l34.4,24.2c2.1,1.5,4.9,1,6.4-1.1l17.5-24.8C61,30.2,61.2,28.6,60.7,27.2 M23.5,14.6c1.3-1.8,3.8-2.2,5.6-1c1.8,1.3,2.2,3.8,1,5.6
			c-1.3,1.8-3.8,2.2-5.6,1C22.7,18.9,22.2,16.4,23.5,14.6 M39.3,43.1c-1.3,1.8-3.8,2.2-5.6,1c-1.8-1.3-2.2-3.8-1-5.6
			c1.3-1.8,3.8-2.2,5.6-1S40.6,41.3,39.3,43.1 M45.1,28.6l-26.9,3.9c-0.2,0-0.5,0-0.7,0c-0.9-0.2-1.6-0.9-1.7-1.8
			c-0.2-1.2,0.6-2.3,1.8-2.4l26.9-3.9c1.2-0.2,2.3,0.6,2.4,1.8C47.1,27.3,46.2,28.4,45.1,28.6"/>
	</defs>
	<use xlink:href="#SVGID_1_"  style="overflow:visible;fill-rule:evenodd;clip-rule:evenodd;fill:#F58020;"/>
	<clipPath id="SVGID_2_">
		<use xlink:href="#SVGID_1_"  style="overflow:visible;"/>
	</clipPath>
</g>
</svg>
