<?xml version="1.0" encoding="utf-8"?>
<!-- Generator: Adobe Illustrator 23.0.6, SVG Export Plug-In . SVG Version: 6.00 Build 0)  -->
<svg version="1.1" xmlns="http://www.w3.org/2000/svg" xmlns:xlink="http://www.w3.org/1999/xlink" x="0px" y="0px"
	 viewBox="0 0 733.2 172.8" style="enable-background:new 0 0 733.2 172.8;" xml:space="preserve">
<style type="text/css">
	.st0{display:none;}
	.st1{display:inline;fill:#010102;}
	.st2{clip-path:url(#SVGID_2_);fill:#00323E;}
	.st3{clip-path:url(#SVGID_2_);fill:#6B6E71;}
	.st4{clip-path:url(#SVGID_2_);fill:#FFFFFF;}
	.st5{clip-path:url(#SVGID_4_);fill:#FFFFFF;}
</style>
<g id="Layer_2" class="st0">
	<rect class="st1" width="733.2" height="172.8"/>
</g>
<g id="Layer_1">
	<g>
		<defs>
			<rect id="SVGID_1_" x="-131" y="-87.7" width="928.5" height="356.5"/>
		</defs>
		<clipPath id="SVGID_2_">
			<use xlink:href="#SVGID_1_"  style="overflow:visible;"/>
		</clipPath>
		<path class="st2" d="M701.1,62.6H590c-16.9,0-30.6-13.7-30.6-30.6c0-16.9,13.7-30.6,30.6-30.6h111.2c16.9,0,30.6,13.7,30.6,30.6
			C731.8,48.9,718.1,62.6,701.1,62.6"/>
		<path class="st3" d="M718.3,34.4c0,9.6-7.8,17.3-17.3,17.3c-9.6,0-17.3-7.8-17.3-17.3c0-9.6,7.8-17.3,17.3-17.3
			C710.5,17.1,718.3,24.9,718.3,34.4"/>
		<path class="st4" d="M718.3,32c0,9.6-7.8,17.3-17.3,17.3c-9.6,0-17.3-7.8-17.3-17.3c0-9.6,7.8-17.3,17.3-17.3
			C710.5,14.6,718.3,22.4,718.3,32"/>
		<path class="st4" d="M586.6,22.4h2.7l6.2,15.6h-2.4l-1.3-3.3H584l-1.3,3.3h-2.3L586.6,22.4z M584.8,32.7h6.2l-3.1-8.1L584.8,32.7z
			"/>
		<path class="st4" d="M598.8,28.1h-2.3v-1.9h2.3v-1.5c0-1.1,0.3-2.1,1-2.8c0.7-0.7,1.6-1.1,2.9-1.1c0.6,0,1.2,0.1,1.7,0.3l-0.7,1.8
			c-0.3-0.1-0.6-0.2-0.9-0.2c-0.5,0-1,0.2-1.3,0.5c-0.3,0.3-0.5,0.8-0.5,1.4v1.5h3.4v1.9h-3.4v10h-2.1V28.1z"/>
		<path class="st4" d="M607.1,21.1h2.1v6.2h0c0.3-0.4,0.8-0.8,1.4-1c0.6-0.3,1.3-0.4,2.1-0.4c1.5,0,2.7,0.4,3.6,1.3
			c0.9,0.9,1.3,2.1,1.3,3.7V38h-2.1v-6.8c0-1.1-0.3-2-0.8-2.6c-0.5-0.6-1.3-0.9-2.3-0.9c-1,0-1.7,0.3-2.3,0.9
			c-0.6,0.6-0.8,1.5-0.8,2.6V38h-2.1V21.1z"/>
		<path class="st4" d="M632.9,38h-2v-1.6h0c-0.4,0.6-1,1-1.7,1.3c-0.7,0.3-1.6,0.5-2.5,0.5c-0.9,0-1.8-0.2-2.5-0.5
			c-0.7-0.3-1.4-0.8-1.9-1.4c-0.5-0.6-0.9-1.2-1.2-2c-0.3-0.8-0.4-1.5-0.4-2.4c0-0.8,0.1-1.6,0.4-2.4c0.3-0.8,0.7-1.4,1.2-2
			c0.5-0.6,1.1-1,1.9-1.4c0.7-0.3,1.6-0.5,2.5-0.5c1,0,1.8,0.2,2.6,0.5c0.7,0.3,1.3,0.8,1.7,1.4h0v-1.6h2V38z M626.9,36.4
			c0.5,0,1.1-0.1,1.5-0.3c0.5-0.2,0.9-0.5,1.3-0.9c0.4-0.4,0.6-0.8,0.9-1.4c0.2-0.5,0.3-1.1,0.3-1.8c0-0.6-0.1-1.2-0.3-1.8
			c-0.2-0.5-0.5-1-0.9-1.4c-0.4-0.4-0.8-0.7-1.3-0.9c-0.5-0.2-1-0.3-1.5-0.3c-0.6,0-1.1,0.1-1.6,0.3c-0.5,0.2-0.9,0.5-1.3,0.9
			c-0.4,0.4-0.6,0.8-0.9,1.4c-0.2,0.5-0.3,1.1-0.3,1.8c0,0.6,0.1,1.2,0.3,1.8c0.2,0.5,0.5,1,0.9,1.4c0.4,0.4,0.8,0.7,1.3,0.9
			C625.8,36.3,626.3,36.4,626.9,36.4"/>
		<rect x="637.4" y="21.1" class="st4" width="2.1" height="16.9"/>
		<path class="st4" d="M648.9,38.3c-0.9,0-1.7-0.2-2.4-0.5c-0.7-0.3-1.4-0.7-1.9-1.3c-0.5-0.5-0.9-1.2-1.2-2
			c-0.3-0.8-0.4-1.6-0.4-2.5c0-0.9,0.1-1.8,0.4-2.5c0.3-0.8,0.7-1.4,1.2-2c0.5-0.5,1.1-1,1.8-1.3c0.7-0.3,1.5-0.5,2.4-0.5
			s1.7,0.1,2.4,0.4c0.7,0.3,1.3,0.7,1.9,1.2c0.5,0.5,0.9,1.2,1.2,1.9c0.3,0.8,0.4,1.6,0.4,2.5c0,0.1,0,0.3,0,0.4c0,0.1,0,0.3,0,0.4
			h-9.5c0,0.5,0.2,1,0.4,1.4c0.2,0.4,0.5,0.8,0.8,1.1c0.3,0.3,0.7,0.6,1.2,0.7c0.4,0.2,0.9,0.3,1.4,0.3c0.9,0,1.6-0.2,2.2-0.5
			c0.6-0.3,1.1-0.7,1.5-1.1l1.3,1.3c-0.5,0.7-1.2,1.2-2.1,1.6C651,38.1,650,38.3,648.9,38.3 M648.8,27.8c-0.5,0-1,0.1-1.5,0.3
			c-0.4,0.2-0.8,0.4-1.1,0.7c-0.3,0.3-0.5,0.6-0.7,1c-0.2,0.4-0.3,0.8-0.3,1.2h7.3c0-0.4-0.2-0.8-0.3-1.2c-0.2-0.4-0.4-0.7-0.7-1
			c-0.3-0.3-0.7-0.5-1.1-0.7C649.8,27.9,649.3,27.8,648.8,27.8"/>
		<path class="st4" d="M658.1,26.2h2v1.2h0c0.3-0.4,0.8-0.8,1.4-1.1c0.6-0.3,1.3-0.4,2.1-0.4c1.5,0,2.7,0.4,3.6,1.3
			c0.9,0.9,1.3,2.1,1.3,3.7V38h-2.1v-6.8c0-1.1-0.3-2-0.8-2.6c-0.5-0.6-1.3-0.9-2.3-0.9c-1,0-1.7,0.3-2.3,0.9
			c-0.6,0.6-0.8,1.5-0.8,2.6V38h-2.1V26.2z"/>
	</g>
	<g>
		<defs>
			<rect id="SVGID_3_" x="-131" y="-87.7" width="928.5" height="356.5"/>
		</defs>
		<clipPath id="SVGID_4_">
			<use xlink:href="#SVGID_3_"  style="overflow:visible;"/>
		</clipPath>
		<path class="st5" d="M475.6,116c-2-1.8-4.3-3.2-6.8-4.1c-5.4-1.9-11.4-1.9-16.8,0c-2.5,0.9-4.9,2.3-6.8,4.1c-2,1.8-3.5,4-4.6,6.4
			c-2.2,6.1-2.2,12.9,0,19c1.1,2.4,2.6,4.6,4.6,6.4c2,1.8,4.3,3.2,6.8,4.1c5.4,1.9,11.4,1.9,16.8,0c2.5-0.9,4.9-2.3,6.8-4.1
			c2-1.8,3.5-4,4.6-6.4c2.2-6.1,2.2-12.9,0-19C479.1,120,477.5,117.8,475.6,116 M467.4,140.2c-4,3.6-10.1,3.6-14.1,0
			c-1.7-1.8-2.5-5.3-2.5-8.3c0-3,0.8-6.4,2.5-8.3c4-3.6,10.1-3.6,14.1,0c1.7,1.8,2.5,5.3,2.5,8.3
			C469.9,134.9,469.1,138.4,467.4,140.2"/>
		<path class="st5" d="M175,96.1h-41.1c-1,0-1.7,0.8-1.7,1.8v7.4c0,1,0.8,1.7,1.7,1.8h13.4c0.5,0,0.9,0.4,0.9,0.9v42.7
			c0,1,0.8,1.8,1.7,1.8h9c0.9,0,1.7-0.8,1.7-1.7v-43c0.1-0.4,0.4-0.7,0.8-0.7H175c0.9,0,1.7-0.8,1.7-1.7v-7.6
			C176.7,96.8,175.9,96.1,175,96.1"/>
		<path class="st5" d="M395.7,116c-1.6-1.8-3.5-3.2-5.7-4.1c-2.4-1-4.9-1.5-7.5-1.4c-2.9,0-5.7,0.5-8.4,1.4
			c-2.5,0.9-4.9,2.3-6.8,4.1c-2,1.8-3.5,4-4.6,6.4c-2.2,6.1-2.2,12.9,0,19c1.1,2.4,2.6,4.6,4.6,6.4c2,1.8,4.3,3.2,6.8,4.1
			c2.7,1,5.5,1.5,8.4,1.4c3.1,0,6.2-0.7,9.1-2c2.2-1,4.2-2.4,5.9-4.1c0.6-0.7,0.6-1.8,0-2.5l-5.4-4l-0.4-0.3
			c-0.7-0.4-1.6-0.3-2.2,0.3c-0.8,0.8-1.6,1.6-2.6,2.2c-1.5,0.9-3.2,1.4-5,1.3c-2.1,0.1-4.2-0.7-5.9-2.1c-1.8-1.8-2.9-4.3-3.1-6.9
			c0-0.4,0.3-0.8,0.8-0.9h25.1c1-0.1,1.7-0.9,1.7-1.8v-1.9c0-2.8-0.4-5.7-1.3-8.4C398.5,120.1,397.3,117.9,395.7,116 M387.7,126.4
			h-13.8c-0.5,0-0.9-0.4-0.9-0.9c0.1-0.7,0.3-1.3,0.6-1.9c0.4-0.9,1-1.7,1.7-2.3c1.7-1.5,3.9-2.3,6.1-2.3c2-0.1,3.9,0.7,5.3,2.1
			c1.2,1.2,1.8,2.7,2,4.3C388.6,126,388.2,126.4,387.7,126.4"/>
		<path class="st5" d="M353.3,116.8c-1.5-1.9-3.4-3.5-5.5-4.6c-2.3-1.2-4.8-1.8-7.4-1.7c-2.4,0-4.7,0.4-7,1.1
			c-1.5,0.5-2.8,1.3-3.9,2.4c0,0-0.1,0.1-0.1,0.1l-0.2,0.2l-0.1,0.1c-0.1,0.1-0.3,0.2-0.4,0.2c-0.3,0-0.6-0.3-0.6-0.6V94
			c0-0.9-0.8-1.7-1.7-1.8h-8.5c-1,0.1-1.7,0.9-1.7,1.8v56.6c0,1,0.8,1.8,1.7,1.8h7.5c0.9-0.1,1.7-0.8,1.8-1.8v-1.8
			c0-0.3,0.3-0.6,0.6-0.5c0.2,0,0.3,0.1,0.4,0.2l0.2,0.2c0.2,0.2,0.5,0.5,0.7,0.7c0.8,0.8,1.7,1.4,2.7,2c1.1,0.6,2.2,1.1,3.4,1.4
			c1.3,0.4,2.6,0.6,3.9,0.6c2.7,0,5.3-0.5,7.8-1.5c2.3-0.9,4.3-2.3,6-4.1c1.7-1.8,3-4,3.9-6.3c1.8-5.9,1.8-12.2,0.1-18.1
			C356.1,121,354.9,118.7,353.3,116.8 M343.7,140.2c-4,3.6-10.1,3.6-14.1,0c-1.7-1.8-2.5-5.5-2.5-8.4c0-2.9,0.8-6.3,2.5-8.1
			c4-3.6,10.1-3.6,14.1,0c1.7,1.8,2.5,5.2,2.5,8.1C346.2,134.7,345.3,138.4,343.7,140.2"/>
		<path class="st5" d="M599.7,92.2h-8.4c-1,0-1.7,0.8-1.8,1.8v20.1c0,0.3-0.3,0.6-0.6,0.6c-0.2,0-0.4-0.1-0.5-0.2v-0.1l-0.2-0.2
			c0-0.1-0.1-0.1-0.2-0.2c-1.1-1.1-2.5-1.9-3.9-2.4c-2.2-0.8-4.6-1.2-7-1.1c-2.6-0.1-5.2,0.5-7.5,1.7c-2.2,1.1-4,2.7-5.5,4.6
			c-1.5,2-2.7,4.2-3.5,6.6c-1.7,5.9-1.6,12.2,0.1,18.1c0.8,2.4,2.2,4.5,3.9,6.3c1.7,1.8,3.7,3.2,6,4.1c2.5,1,5.1,1.5,7.8,1.5
			c1.3,0,2.6-0.2,3.9-0.6c1.2-0.4,2.3-0.8,3.4-1.4c1-0.5,1.9-1.2,2.7-2l0.7-0.7l0.2-0.2c0.3-0.3,0.7-0.3,0.9,0
			c0.1,0.1,0.2,0.2,0.2,0.3v1.8c0,1,0.8,1.8,1.8,1.8h7.5c1,0,1.8-0.8,1.8-1.8V94.1C601.4,93.1,600.6,92.3,599.7,92.2 M587.9,140.2
			c-4,3.6-10.1,3.6-14.1,0c-1.7-1.8-2.5-5.5-2.5-8.4c0-2.9,0.8-6.3,2.5-8.1c4-3.6,10.1-3.6,14.1,0c1.7,1.8,2.5,5.2,2.5,8.1
			C590.4,134.7,589.6,138.4,587.9,140.2"/>
		<path class="st5" d="M269.5,92.3c-3.8,0-6.9,3.1-7,6.9c0,3.8,3.1,6.9,6.9,7c3.8,0,6.9-3.1,7-6.9c0-1.8-0.7-3.6-2-4.9
			C273.2,93.1,271.4,92.3,269.5,92.3"/>
		<path class="st5" d="M273.7,111.4h-8.3c-1,0-1.8,0.8-1.8,1.8v37.5c0,1,0.8,1.7,1.8,1.7h8.3c1,0,1.8-0.8,1.8-1.7v-37.5
			C275.4,112.3,274.6,111.5,273.7,111.4"/>
		<path class="st5" d="M553.8,111.4h-7.5c-0.9,0-1.7,0.8-1.7,1.7v1.9c-0.1,0.4-0.4,0.6-0.8,0.5c-0.1,0-0.2-0.1-0.3-0.2l-0.1-0.1
			c-0.3-0.3-0.5-0.6-0.8-0.8c-0.9-0.8-1.8-1.4-2.9-2c-1.2-0.6-2.5-1.1-3.8-1.4c-1.5-0.4-3.1-0.6-4.7-0.6c-2.6,0-5.1,0.5-7.4,1.7
			c-2.1,1.1-4,2.6-5.5,4.5c-1.5,1.9-2.7,4.1-3.5,6.5c-0.8,2.9-1.2,5.9-1.2,8.9c0,3,0.4,6,1.4,8.9c0.8,2.4,2.2,4.5,3.9,6.3
			c1.7,1.8,3.7,3.2,6,4.1c2.5,1,5.1,1.5,7.8,1.5c2,0,3.9-0.4,5.8-1.2c1.4-0.5,2.7-1.4,3.8-2.4c0,0,0.1-0.1,0.1-0.1
			c0.1-0.1,0.2-0.2,0.3-0.3c0.1-0.1,0.3-0.2,0.5-0.2c0.3,0,0.6,0.3,0.6,0.6v2.2c0.1,2.5-0.8,5-2.6,6.8c-1.7,1.8-4.4,2.7-8.1,2.7
			c-2.3,0-4.6-0.4-6.7-1.4c-1.6-0.7-3-1.6-4.4-2.6c-0.8-0.5-1.8-0.4-2.4,0.4l-4.7,7c-0.5,0.8-0.3,1.9,0.4,2.5c2.4,1.6,5,2.8,7.8,3.5
			c3.3,0.8,6.8,1.2,10.2,1.1c7.5,0,13.2-1.9,16.8-5.7c3.7-3.8,5.5-9.4,5.5-16.7v-36C555.5,112.2,554.8,111.5,553.8,111.4
			 M543.9,136.5c-0.5,1.1-1.2,2.2-2.1,3c-0.9,0.9-2,1.6-3.1,2.1c-2.4,1.1-5.1,1.1-7.5,0c-1.1-0.5-2.1-1.2-3-2.1
			c-0.9-0.9-1.6-1.9-2.1-3c-0.5-1.4-0.7-3-0.7-4.5c0-1.7,0.2-3.4,0.7-5.1c0.5-1.1,1.2-2.2,2.1-3c0.9-0.9,1.9-1.6,3-2.1
			c2.4-1.1,5.1-1.1,7.5,0c1.2,0.5,2.2,1.2,3.1,2.1c0.9,0.9,1.6,1.9,2.1,3c0.5,1.6,0.7,3.3,0.7,5.1
			C544.6,133.5,544.3,135,543.9,136.5"/>
		<path class="st5" d="M214.1,115.7c-1.1-1.7-2.6-3-4.3-3.9c-2.3-1-4.8-1.5-7.3-1.4c-1.3,0-2.7,0.2-4,0.6c-1.1,0.3-2.2,0.8-3.2,1.4
			c-0.9,0.5-1.6,1.2-2.3,2c0,0-0.1,0.1-0.1,0.1l-0.2,0.3l-0.1,0.2c-0.3,0.2-0.7,0.2-0.9-0.1c-0.1-0.1-0.1-0.2-0.1-0.2V94
			c0-1-0.8-1.8-1.8-1.8h-8.4c-1,0-1.8,0.8-1.8,1.8v56.6c0,1,0.8,1.8,1.8,1.8h8.3c1,0,1.8-0.8,1.8-1.8v-19.7c0-1.2,0.1-2.5,0.2-3.7
			c0.1-1.1,0.5-2.1,1-3.1c0.5-0.9,1.3-1.7,2.2-2.2c1.2-0.6,2.4-0.9,3.7-0.8c2.4-0.3,4.6,1.2,5.4,3.4c0.4,1.1,0.7,2.2,0.7,3.3
			c0.1,1.2,0.1,2.3,0.1,3.5v19.4c0,1,0.8,1.8,1.8,1.8h8.3c1,0,1.8-0.8,1.8-1.8v-21.9c0-2.4-0.2-4.8-0.5-7.2
			C215.9,119.5,215.2,117.5,214.1,115.7"/>
		<path class="st5" d="M511.3,110.5h-2.2c-2.3-0.1-4.6,0.5-6.6,1.8c-1.3,0.9-2.4,2-3.3,3.4l-0.2,0.2l-0.1,0.2
			c-0.1,0.1-0.3,0.2-0.5,0.2c-0.3,0-0.6-0.2-0.6-0.5v-2.5c0-1-0.8-1.8-1.8-1.8h-8.3c-0.9,0-1.7,0.7-1.8,1.6v37.7
			c0.1,0.9,0.9,1.6,1.8,1.6h8.4c1,0,1.8-0.8,1.8-1.8V134c0-1.8,0.1-3.5,0.3-5.3c0.2-1.5,0.6-2.9,1.4-4.1c0.7-1.2,1.8-2.1,3.1-2.7
			c1.4-0.6,2.8-0.9,4.3-0.9h4.4c0.9,0,1.7-0.8,1.8-1.7v-7.1C513.1,111.3,512.3,110.6,511.3,110.5"/>
		<path class="st5" d="M306.9,130.1c-1.5-0.9-3.1-1.6-4.8-2l-4.8-1.2c-1.3-0.3-2.5-0.7-3.7-1.3c-0.9-0.4-1.5-1.3-1.5-2.2
			c-0.1-1.1,0.5-2.1,1.4-2.6c0.9-0.5,1.9-0.8,2.9-0.8c2.1,0,4.2,0.7,5.7,2.2c0.7,0.6,1.7,0.6,2.4,0l4.9-5.2c0.6-0.7,0.6-1.7,0-2.4
			c-1.6-1.4-3.4-2.5-5.4-3.1c-2.5-0.8-5.1-1.2-7.7-1.2c-2,0-4,0.3-5.9,0.8c-1.9,0.5-3.6,1.3-5.2,2.5c-1.5,1.1-2.8,2.6-3.6,4.3
			c-1,1.9-1.4,4.1-1.4,6.2c-0.1,2.2,0.4,4.3,1.5,6.2c0.9,1.5,2.2,2.7,3.7,3.6c1.5,0.9,3.1,1.5,4.8,2l4.8,1.2
			c1.3,0.3,2.5,0.7,3.7,1.3c0.9,0.4,1.5,1.4,1.5,2.4c0,1.1-0.6,2-1.7,2.3c-1.2,0.4-2.5,0.6-3.7,0.6c-1.6,0-3.3-0.3-4.7-1.1
			c-0.9-0.5-1.8-1.2-2.5-2c-0.7-0.6-1.8-0.5-2.4,0.2l-4.9,5.8c-0.6,0.8-0.4,1.9,0.3,2.5c1.6,1.4,3.6,2.5,5.7,3.1
			c2.6,0.8,5.4,1.2,8.2,1.2c2.1,0,4.2-0.2,6.3-0.6c2-0.4,4-1.1,5.7-2.2c1.7-1,3.1-2.5,4.1-4.1c1.1-2,1.7-4.2,1.6-6.5
			c0.1-2.2-0.4-4.3-1.5-6.2C309.7,132.3,308.5,131.1,306.9,130.1"/>
		<path class="st5" d="M256.4,111.5h-8.3c-1,0-1.8,0.8-1.8,1.7V133c0,1.2-0.1,2.4-0.2,3.7c-0.1,1.1-0.5,2.1-1,3.1
			c-0.5,0.9-1.3,1.7-2.2,2.2c-1.2,0.6-2.4,0.9-3.7,0.8c-1.3,0.1-2.5-0.3-3.5-1c-0.8-0.6-1.5-1.5-1.8-2.5c-0.4-1.1-0.6-2.2-0.7-3.3
			c-0.1-1.2-0.1-2.3-0.1-3.5v-19.5c-0.1-1-0.9-1.7-1.8-1.7h-8.3c-1,0-1.9,0.8-1.9,1.8c0,0,0,0,0,0v21.9c0,2.4,0.2,4.8,0.6,7.2
			c0.3,2.1,1,4,2.1,5.8c1.1,1.7,2.6,3,4.3,3.9c2.3,1,4.8,1.5,7.3,1.4c1.3,0,2.7-0.2,4-0.6c1.1-0.3,2.2-0.8,3.3-1.4
			c0.9-0.6,1.8-1.2,2.6-2c0.2-0.3,0.5-0.5,0.7-0.8c0.1-0.1,0.3-0.2,0.4-0.2c0.3,0,0.6,0.3,0.6,0.6v1.6c0,1,0.8,1.8,1.8,1.8h7.8
			c1,0,1.8-0.8,1.8-1.8v-37.5C258.2,112.2,257.4,111.5,256.4,111.5"/>
		<path class="st5" d="M435.6,142.9h-18.2c-0.3-0.1-0.5-0.3-0.5-0.6c0-0.2,0.1-0.3,0.2-0.4l0.3-0.2l0.2-0.2l17.2-16.3l1-0.9
			c0.8-0.7,1.2-1.6,1.2-2.6v-8.2c0-1-0.8-1.8-1.8-1.8h-29.9c-1,0-1.8,0.8-1.8,1.8v6c0,1,0.8,1.8,1.8,1.8h16.3c0.3,0,0.6,0.3,0.6,0.6
			c0,0.1,0,0.3-0.1,0.4l-15.4,14.9l-2.2,2.2l-0.4,0.4c-0.6,0.7-1,1.6-1,2.5v8.7c0,1,0.8,1.8,1.8,1.8h30.8c1,0,1.8-0.8,1.8-1.8v-5.9
			C437.4,143.7,436.6,142.9,435.6,142.9"/>
		<path class="st5" d="M663.4,91.6h-2.8c-1,0-1.7,0.8-1.7,1.8v57.2c0,1,0.8,1.8,1.8,1.8h2.7c1,0,1.8-0.8,1.8-1.8V93.4
			C665.1,92.4,664.3,91.6,663.4,91.6"/>
		<path class="st5" d="M649.6,114.8c-1.2-1.4-2.8-2.4-4.5-3.1c-2-0.8-4.2-1.2-6.4-1.1c-2.8,0-5.6,0.7-8,2.2c-1,0.6-2,1.4-2.8,2.3
			c-0.2,0.2-0.4,0.4-0.5,0.6l-0.2,0.3c0,0-0.1,0.1-0.1,0.1c-0.1,0.1-0.3,0.2-0.5,0.2c-0.3,0-0.6-0.2-0.6-0.5v-2.5
			c0-1-0.8-1.8-1.8-1.8H622c-1,0-1.8,0.8-1.8,1.8v37.4c0,1,0.8,1.7,1.8,1.8h2.7c1,0,1.8-0.8,1.8-1.8v-19.8c0-2,0.2-4,0.7-5.9
			c0.4-1.7,1.1-3.2,2.1-4.6c0.9-1.3,2.2-2.3,3.6-3c1.7-0.7,3.5-1.1,5.3-1c3,0,5.2,0.9,6.5,2.8c1.5,2.2,2.2,4.8,2.1,7.5v24.1
			c0,1,0.8,1.8,1.8,1.8h2.8c1,0,1.8-0.8,1.8-1.8v-24.8c0-2.1-0.3-4.2-0.8-6.2C651.7,117.9,650.8,116.2,649.6,114.8"/>
		<path class="st5" d="M610.5,144.2c-1.2,0-2.4,0.4-3.2,1.3c-1.6,1.7-1.6,4.4,0,6.1c1.7,1.7,4.5,1.8,6.2,0.1c0,0,0.1-0.1,0.1-0.1
			c1.6-1.7,1.6-4.4,0-6.1C612.9,144.7,611.7,144.2,610.5,144.2"/>
		<path class="st5" d="M53.9,55.4c2.2-1.4,5-1.4,7.2,0c5.5,3.5,10.8,7.3,15.8,11.4c0,0,1.4,1,1.4-0.7c0,0-0.2-4.8,0.4-6.2
			c0.4-1.1,1.4-1.9,2.6-1.9c0,0,6.2,0.3,10.2,0.8c1.8,0.3,3.1,1.7,3.3,3.5c0,0,2.5,16.9,3.1,23c0,0,0.5,3.1,5,8.4
			c0,0,9.1,12.7,10.2,15.2c0,0,2.1,4.4-2.4,5c0,0-8.3,0.8-9.1,1c-1.1,0.1-2,1.1-1.9,2.3c0,0,0,0,0,0.1c0,0-0.4,29.4-2.6,43.6
			c0,0-0.6,5.6-3.7,5.5c0,0-8.6-0.3-10.5-0.2c0,0-0.9,0.1-0.7-1.1c0,0,4.4-45.9,1.4-69.1c0,0-0.1-3-2.4-3.6c0,0-2.1-0.8-4.1,1.9
			c0,0-13.6,17.2-13.6,41.4c0,0-0.2,7.3,0.9,9.2c0,0,0.7,1.3,4.2,1.6l4.5,0.6c0,0,0.8,0,0.8,1.1c0,0-1,13.5-1.3,15.9
			c0,0.5-0.1,1.1-0.3,1.6c0,0-0.2,0.5-1.6,0.4c0,0-19.8-0.1-22,0c0,0-0.9,0.1-1.1-0.5c-0.2-0.6-1.4-17.4-1.3-19.8
			c0-0.5,0.2-1,0.7-1.2c3.1-1.9,5.1-5.1,5.5-8.7c0,0,0.3-1.4,0.1-7.7c0,0,0.7-25.8,0.9-30c0,0,0.2-1.4-1.7-1.7
			c-0.9-0.2-1.8,0.4-2,1.3c0,0,0,0.1,0,0.2c0,0-1.3,17-1,23.8c0,0,0.4,4.4-2.6,4.5c0,0-3,0.4-3.1-3.2c0,0,0.2-16.6,0.9-24.7
			c0-0.9-0.7-1.7-1.6-1.8c-1-0.2-1.9,0.5-2.1,1.5c0,0.1,0,0.1,0,0.2c0,0-1.3,15.8-1,24.2c0,0,0.4,4.1-2.9,3.9c0,0-2.7,0.3-2.9-3.3
			c0,0,0.7-22.7,0.9-24.4c0.1-1-0.6-1.9-1.6-2.1c-0.1,0-0.1,0-0.2,0c-1-0.1-1.8,0.5-2,1.5c0,0.1,0,0.1,0,0.2c0,0-1.2,27.1-1,35.1
			c0,0-0.1,8.2,5.9,11.5c0,0,0.9,0.5,0.9,1.3c0,0,0.7,14.4,1.3,19c0,0,0.2,1.1-0.8,1.1l-15.2,0.4c0,0-2.5,0.2-3.1-3
			c-0.5-2.9-3.3-26.9-2.8-46c0.1-1.2-0.7-2.3-1.9-2.5c0,0-7.8-0.7-9.7-1.2c-1.7-0.4-2.8-2.2-2.3-3.9c0.1-0.3,0.2-0.6,0.3-0.8
			C2.1,109.2,18.9,77.1,53.9,55.4"/>
	</g>
</g>
</svg>
