<svg id="Layer_1" data-name="Layer 1" xmlns="http://www.w3.org/2000/svg" viewBox="0 0 730.13 170.23"><defs><style>.cls-1{fill:#fff;}.cls-2{fill:#f47920;}</style></defs><title>pickup-nl-nl-orange</title><path class="cls-1" d="M699.52,61.23H588.35a30.62,30.62,0,1,1,0-61.23H699.52a30.62,30.62,0,0,1,0,61.23"/><path class="cls-2" d="M716.64,30.62a17.31,17.31,0,1,1-17.31-17.31,17.31,17.31,0,0,1,17.31,17.31"/><path class="cls-2" d="M585,21.1h2.72l6.16,15.6h-2.4l-1.29-3.31h-7.8l-1.27,3.31h-2.28Zm-1.79,10.27h6.19l-3.12-8.06Z"/><path class="cls-2" d="M597.19,26.71h-2.28V24.84h2.28V23.33a3.87,3.87,0,0,1,1-2.77,3.77,3.77,0,0,1,2.88-1.07,4,4,0,0,1,1.71.34l-.7,1.8a2.62,2.62,0,0,0-.94-.19,1.83,1.83,0,0,0-1.33.51,1.94,1.94,0,0,0-.51,1.43v1.46h3.41v1.87h-3.41v10h-2.12Z"/><path class="cls-2" d="M605.47,19.78h2.12V26h0a3.54,3.54,0,0,1,1.36-1,5.56,5.56,0,0,1,5.62.91,5,5,0,0,1,1.3,3.7V36.7H613.8V29.94a3.87,3.87,0,0,0-.78-2.61,2.86,2.86,0,0,0-2.29-.9,3,3,0,0,0-2.3.9,3.69,3.69,0,0,0-.84,2.61V36.7h-2.12Z"/><path class="cls-2" d="M631.32,36.7h-2V35.14h0a4.16,4.16,0,0,1-1.69,1.34,6.48,6.48,0,0,1-5,0,5.56,5.56,0,0,1-1.89-1.35,6.19,6.19,0,0,1-1.19-2,7,7,0,0,1,0-4.76,6.19,6.19,0,0,1,1.19-2,5.56,5.56,0,0,1,1.89-1.35,5.94,5.94,0,0,1,2.5-.51,6.25,6.25,0,0,1,2.56.5,3.67,3.67,0,0,1,1.67,1.35h0V24.84h2Zm-6.09-1.63a3.83,3.83,0,0,0,1.54-.32,3.78,3.78,0,0,0,1.28-.87,4.18,4.18,0,0,0,.85-1.36,5.09,5.09,0,0,0,0-3.5,4.18,4.18,0,0,0-.85-1.36,3.78,3.78,0,0,0-1.28-.87,3.83,3.83,0,0,0-1.54-.32,4,4,0,0,0-1.59.32,3.78,3.78,0,0,0-1.28.87,4,4,0,0,0-.85,1.36,4.95,4.95,0,0,0,0,3.5,4,4,0,0,0,.85,1.36,3.78,3.78,0,0,0,1.28.87,4,4,0,0,0,1.59.32"/><rect class="cls-2" x="635.74" y="19.78" width="2.11" height="16.92"/><path class="cls-2" d="M647.23,37a6.27,6.27,0,0,1-2.41-.46A5.44,5.44,0,0,1,643,35.26a5.83,5.83,0,0,1-1.21-2,7,7,0,0,1-.43-2.53,7.32,7.32,0,0,1,.42-2.52,5.61,5.61,0,0,1,1.2-2A5.51,5.51,0,0,1,644.77,25a6.07,6.07,0,0,1,2.37-.46,6.24,6.24,0,0,1,2.39.45,5.31,5.31,0,0,1,1.86,1.25,5.68,5.68,0,0,1,1.2,1.94A7.22,7.22,0,0,1,653,30.7c0,.14,0,.28,0,.42s0,.26,0,.37h-9.5a3.82,3.82,0,0,0,.36,1.43,3.7,3.7,0,0,0,2,1.88,3.78,3.78,0,0,0,1.42.27,4.72,4.72,0,0,0,2.19-.47,5.13,5.13,0,0,0,1.5-1.14l1.35,1.32a5.47,5.47,0,0,1-2.1,1.63,7.28,7.28,0,0,1-3,.58m-.09-10.56a3.81,3.81,0,0,0-1.47.26,3.39,3.39,0,0,0-1.1.72,3.71,3.71,0,0,0-.73,1,3.45,3.45,0,0,0-.33,1.23h7.3a3.7,3.7,0,0,0-.35-1.23,3.45,3.45,0,0,0-1.87-1.75,3.78,3.78,0,0,0-1.45-.26"/><path class="cls-2" d="M656.47,24.84h2V26h0A3.31,3.31,0,0,1,659.92,25a5.11,5.11,0,0,1,2.12-.41,4.85,4.85,0,0,1,3.56,1.3,5,5,0,0,1,1.31,3.7V36.7H664.8V29.94a3.87,3.87,0,0,0-.78-2.61,2.86,2.86,0,0,0-2.29-.9,3,3,0,0,0-2.31.9,3.69,3.69,0,0,0-.84,2.61V36.7h-2.11Z"/><path class="cls-1" d="M474,114.7a20.35,20.35,0,0,0-6.85-4.14,25.5,25.5,0,0,0-16.81,0,20.4,20.4,0,0,0-6.84,4.14,18.94,18.94,0,0,0-4.58,6.41,27.9,27.9,0,0,0,0,19,19.08,19.08,0,0,0,4.58,6.41,20.08,20.08,0,0,0,6.84,4.14,25.25,25.25,0,0,0,16.81,0,20,20,0,0,0,6.85-4.14,19.21,19.21,0,0,0,4.59-6.41,28.14,28.14,0,0,0,0-19A19.21,19.21,0,0,0,474,114.7m-8.19,24.16a10.52,10.52,0,0,1-14.11,0c-1.68-1.8-2.5-5.31-2.5-8.28s.82-6.43,2.5-8.27a10.52,10.52,0,0,1,14.11,0c1.66,1.79,2.5,5.31,2.5,8.27s-.84,6.44-2.5,8.28"/><path class="cls-1" d="M173.37,94.74h-41.1a1.83,1.83,0,0,0-1.75,1.78V104a1.81,1.81,0,0,0,1.73,1.77H145.7a.93.93,0,0,1,.88.9V149.3a1.82,1.82,0,0,0,1.74,1.81h9a1.8,1.8,0,0,0,1.72-1.72v-43a.93.93,0,0,1,.85-.7h13.51a1.8,1.8,0,0,0,1.72-1.69V96.44a1.8,1.8,0,0,0-1.74-1.7"/><path class="cls-1" d="M394.11,114.7a15.47,15.47,0,0,0-5.74-4.14,19.15,19.15,0,0,0-7.52-1.42,24.55,24.55,0,0,0-8.4,1.42,20,20,0,0,0-6.85,4.14,19.21,19.21,0,0,0-4.57,6.4,27.9,27.9,0,0,0,0,19,19.29,19.29,0,0,0,4.57,6.41,20.38,20.38,0,0,0,6.85,4.14,24.29,24.29,0,0,0,8.4,1.44,21.54,21.54,0,0,0,9.08-2,19.08,19.08,0,0,0,5.95-4.14,1.8,1.8,0,0,0,0-2.45l-5.42-4-.39-.27a1.8,1.8,0,0,0-2.18.28,13.18,13.18,0,0,1-2.57,2.2,9,9,0,0,1-5,1.32,8.83,8.83,0,0,1-5.88-2.07,10.82,10.82,0,0,1-3.11-6.87.91.91,0,0,1,.77-.88h25.11a1.84,1.84,0,0,0,1.73-1.82v-1.95a25.74,25.74,0,0,0-1.28-8.35,18.28,18.28,0,0,0-3.62-6.41m-8,10.35H372.29a.92.92,0,0,1-.92-.86,7.27,7.27,0,0,1,.58-1.89,7.06,7.06,0,0,1,1.66-2.31,8.8,8.8,0,0,1,6.1-2.27,7.09,7.09,0,0,1,5.33,2.14,6.87,6.87,0,0,1,2,4.33.92.92,0,0,1-.9.86"/><path class="cls-1" d="M351.7,115.45a17,17,0,0,0-5.53-4.59,15.77,15.77,0,0,0-7.41-1.7,20.19,20.19,0,0,0-7,1.15,11,11,0,0,0-3.94,2.41l-.09.08-.23.24-.08.07a.58.58,0,0,1-.43.16.63.63,0,0,1-.64-.62v-20a1.82,1.82,0,0,0-1.73-1.76h-8.47a1.83,1.83,0,0,0-1.72,1.81v56.6a1.82,1.82,0,0,0,1.75,1.81h7.5a1.85,1.85,0,0,0,1.76-1.75v-1.82a.62.62,0,0,1,.63-.55.61.61,0,0,1,.43.17l.23.23c.22.24.46.47.7.7a13.76,13.76,0,0,0,2.71,2,17.44,17.44,0,0,0,3.39,1.44,13.59,13.59,0,0,0,3.91.56,20.07,20.07,0,0,0,7.8-1.48,17.45,17.45,0,0,0,6-4.14,18.2,18.2,0,0,0,3.87-6.33,32.46,32.46,0,0,0,.12-18.12,21.31,21.31,0,0,0-3.51-6.56m-9.71,23.41a10.55,10.55,0,0,1-14.1,0c-1.68-1.81-2.5-5.48-2.5-8.39s.82-6.29,2.5-8.1a10.55,10.55,0,0,1,14.1,0c1.66,1.81,2.5,5.17,2.5,8.1s-.84,6.58-2.5,8.39"/><path class="cls-1" d="M598,90.9h-8.4a1.81,1.81,0,0,0-1.75,1.79v20.09a.65.65,0,0,1-.63.56.66.66,0,0,1-.51-.24v0l-.18-.17c0-.06-.11-.11-.16-.18a11.29,11.29,0,0,0-3.93-2.4,20.21,20.21,0,0,0-7-1.15,15.71,15.71,0,0,0-7.48,1.72,17.18,17.18,0,0,0-5.54,4.59A21.62,21.62,0,0,0,559,122a32.37,32.37,0,0,0,.13,18.12,18.27,18.27,0,0,0,3.86,6.33,17.26,17.26,0,0,0,6,4.14,20.05,20.05,0,0,0,7.81,1.48,13.58,13.58,0,0,0,3.85-.56,17,17,0,0,0,3.44-1.44,14.13,14.13,0,0,0,2.71-2l.72-.73.2-.21a.66.66,0,0,1,.92,0,.64.64,0,0,1,.19.34v1.81a1.82,1.82,0,0,0,1.76,1.8H598a1.84,1.84,0,0,0,1.77-1.84V92.72A1.81,1.81,0,0,0,598,90.9m-11.74,48a10.55,10.55,0,0,1-14.1,0c-1.67-1.81-2.5-5.48-2.5-8.4s.83-6.28,2.5-8.09a10.55,10.55,0,0,1,14.1,0c1.68,1.81,2.52,5.17,2.52,8.09s-.84,6.59-2.52,8.4"/><path class="cls-1" d="M267.91,91a6.93,6.93,0,1,0,4.9,2.07,6.66,6.66,0,0,0-4.9-2.07"/><path class="cls-1" d="M272.05,110.11h-8.28a1.82,1.82,0,0,0-1.82,1.76v37.5a1.79,1.79,0,0,0,1.79,1.74h8.31a1.81,1.81,0,0,0,1.8-1.74V111.91a1.84,1.84,0,0,0-1.83-1.76"/><path class="cls-1" d="M552.19,110.11H544.7a1.8,1.8,0,0,0-1.75,1.73v1.9a.67.67,0,0,1-.78.5.73.73,0,0,1-.33-.19l-.12-.13a7.3,7.3,0,0,0-.85-.82,13.31,13.31,0,0,0-2.86-2,17.61,17.61,0,0,0-3.78-1.43,18.37,18.37,0,0,0-4.67-.56,15.6,15.6,0,0,0-7.4,1.71,17.63,17.63,0,0,0-5.54,4.5,21,21,0,0,0-3.51,6.46,33.17,33.17,0,0,0-1.24,8.92,28.28,28.28,0,0,0,1.37,8.9A18.62,18.62,0,0,0,517.1,146a17.39,17.39,0,0,0,6,4.14,19.86,19.86,0,0,0,7.8,1.48,16.53,16.53,0,0,0,5.77-1.16,11.1,11.1,0,0,0,3.79-2.4l.09-.09c.1-.1.2-.2.29-.31a.73.73,0,0,1,.49-.21.64.64,0,0,1,.64.61v2.21a9.41,9.41,0,0,1-2.59,6.81q-2.58,2.66-8.08,2.66a16.56,16.56,0,0,1-6.73-1.35,24.93,24.93,0,0,1-4.42-2.56,1.85,1.85,0,0,0-2.42.35l-4.65,7a1.83,1.83,0,0,0,.44,2.5,23,23,0,0,0,7.82,3.46,45.51,45.51,0,0,0,10.2,1.15q11.31,0,16.84-5.69t5.54-16.68v-36a1.81,1.81,0,0,0-1.75-1.74m-10,25a9.44,9.44,0,0,1-2.07,3,10,10,0,0,1-3.11,2.07,9.31,9.31,0,0,1-7.53,0,10.22,10.22,0,0,1-3-2.07,9.44,9.44,0,0,1-2.07-3,14.25,14.25,0,0,1-.71-4.49,18.08,18.08,0,0,1,.71-5.06,9.35,9.35,0,0,1,2.07-3,10.61,10.61,0,0,1,3-2.07,9.31,9.31,0,0,1,7.53,0,10.38,10.38,0,0,1,3.11,2.07,9.62,9.62,0,0,1,2.07,3,18.08,18.08,0,0,1,.71,5.06,14,14,0,0,1-.71,4.49"/><path class="cls-1" d="M212.46,114.41a10.51,10.51,0,0,0-4.33-3.87,16.68,16.68,0,0,0-7.34-1.39,13.82,13.82,0,0,0-4,.56,12.24,12.24,0,0,0-3.17,1.43,10.32,10.32,0,0,0-2.32,2l-.07.09-.23.27-.12.17a.65.65,0,0,1-.91-.07.7.7,0,0,1-.13-.24V92.67a1.84,1.84,0,0,0-1.81-1.81h-8.38a1.82,1.82,0,0,0-1.76,1.81v56.62a1.83,1.83,0,0,0,1.81,1.83H188a1.83,1.83,0,0,0,1.81-1.83V129.55a26.66,26.66,0,0,1,.25-3.68,8.71,8.71,0,0,1,1-3.1,5.79,5.79,0,0,1,2.19-2.23,7.41,7.41,0,0,1,3.75-.83,5.11,5.11,0,0,1,5.37,3.42,10.72,10.72,0,0,1,.72,3.3c.07,1.2.12,2.35.12,3.47v19.44a1.85,1.85,0,0,0,1.82,1.83h8.27a1.84,1.84,0,0,0,1.83-1.83V127.43a44,44,0,0,0-.55-7.25,15.37,15.37,0,0,0-2.12-5.81"/><path class="cls-1" d="M509.67,109.17h-2.23a11.43,11.43,0,0,0-6.61,1.79,12.94,12.94,0,0,0-3.29,3.35l-.16.22-.11.17a.68.68,0,0,1-.48.21.67.67,0,0,1-.64-.52v-2.48a1.81,1.81,0,0,0-1.81-1.79h-8.27a1.83,1.83,0,0,0-1.83,1.64v37.73a1.83,1.83,0,0,0,1.77,1.63h8.4a1.79,1.79,0,0,0,1.77-1.8V132.66a40.27,40.27,0,0,1,.33-5.26,10.13,10.13,0,0,1,1.39-4.13,7,7,0,0,1,3.1-2.67,11.15,11.15,0,0,1,4.33-.93h4.39a1.82,1.82,0,0,0,1.78-1.7v-7.1a1.81,1.81,0,0,0-1.75-1.68"/><path class="cls-1" d="M305.3,128.77a17.65,17.65,0,0,0-4.84-2l-4.83-1.17a18.15,18.15,0,0,1-3.72-1.27,2.34,2.34,0,0,1-1.46-2.22,2.73,2.73,0,0,1,1.42-2.62,6.15,6.15,0,0,1,2.94-.75,8.15,8.15,0,0,1,5.74,2.18,1.84,1.84,0,0,0,2.41,0l4.88-5.17a1.82,1.82,0,0,0,0-2.36,14.33,14.33,0,0,0-5.42-3.1,26.09,26.09,0,0,0-7.7-1.17,22,22,0,0,0-5.93.79,15.5,15.5,0,0,0-5.18,2.48,12.79,12.79,0,0,0-3.64,4.3,13.06,13.06,0,0,0-1.38,6.2,11.42,11.42,0,0,0,1.47,6.21,10.14,10.14,0,0,0,3.72,3.58,19.13,19.13,0,0,0,4.82,2l4.83,1.18a15.82,15.82,0,0,1,3.73,1.34,2.6,2.6,0,0,1,1.46,2.41,2.3,2.3,0,0,1-1.65,2.31,10.56,10.56,0,0,1-3.73.63,9.42,9.42,0,0,1-4.71-1.13,11.45,11.45,0,0,1-2.55-2,1.82,1.82,0,0,0-2.42.16l-4.91,5.8a1.82,1.82,0,0,0,.3,2.48,15.16,15.16,0,0,0,5.66,3.1,28.62,28.62,0,0,0,8.17,1.22,31.35,31.35,0,0,0,6.26-.63,17.26,17.26,0,0,0,5.71-2.19,12.86,12.86,0,0,0,4.13-4.14,12.05,12.05,0,0,0,1.63-6.53,11.6,11.6,0,0,0-1.47-6.21,11.13,11.13,0,0,0-3.73-3.65"/><path class="cls-1" d="M254.78,110.12h-8.27a1.83,1.83,0,0,0-1.81,1.74V131.7a28,28,0,0,1-.25,3.66,8.75,8.75,0,0,1-1,3.1,5.66,5.66,0,0,1-2.18,2.24,7.47,7.47,0,0,1-3.74.84,5.66,5.66,0,0,1-3.55-1,5.85,5.85,0,0,1-1.84-2.47,10.71,10.71,0,0,1-.71-3.3c-.08-1.2-.11-2.35-.11-3.46V111.85a1.85,1.85,0,0,0-1.82-1.73h-8.28a1.83,1.83,0,0,0-1.89,1.77v21.93a45,45,0,0,0,.56,7.24,16.06,16.06,0,0,0,2.07,5.81,10.67,10.67,0,0,0,4.34,3.87,16.54,16.54,0,0,0,7.34,1.39,13.7,13.7,0,0,0,4-.56,14.62,14.62,0,0,0,3.27-1.43,11.63,11.63,0,0,0,2.55-2c.25-.26.47-.53.68-.79a.59.59,0,0,1,.43-.19.65.65,0,0,1,.64.62v1.58a1.85,1.85,0,0,0,1.83,1.82h7.81a1.83,1.83,0,0,0,1.83-1.82V111.85a1.83,1.83,0,0,0-1.83-1.73"/><path class="cls-1" d="M434,141.58H415.75a.65.65,0,0,1-.52-.64.66.66,0,0,1,.17-.45l.26-.25.21-.19,17.19-16.35,1-.94a3.69,3.69,0,0,0,1.24-2.63v-8.22a1.85,1.85,0,0,0-1.83-1.82H403.65a1.84,1.84,0,0,0-1.82,1.79v6a1.84,1.84,0,0,0,1.82,1.79H420a.64.64,0,0,1,.58.64.63.63,0,0,1-.12.37L405.06,135.6l-2.25,2.17-.41.4a3.63,3.63,0,0,0-1,2.49v8.7a1.81,1.81,0,0,0,1.79,1.76H434a1.82,1.82,0,0,0,1.81-1.81V143.4a1.82,1.82,0,0,0-1.81-1.82"/><path class="cls-1" d="M661.75,90.28h-2.82a1.82,1.82,0,0,0-1.75,1.81V149.3a1.81,1.81,0,0,0,1.78,1.82h2.72a1.82,1.82,0,0,0,1.78-1.82V92.09a1.8,1.8,0,0,0-1.74-1.81"/><path class="cls-1" d="M648,113.43a11.93,11.93,0,0,0-4.49-3.1,16.37,16.37,0,0,0-6.42-1.14,15.1,15.1,0,0,0-8,2.22,13.1,13.1,0,0,0-2.78,2.3c-.19.21-.37.41-.53.62l-.21.28-.09.12a.57.57,0,0,1-.47.2.64.64,0,0,1-.63-.54v-2.48a1.83,1.83,0,0,0-1.78-1.79h-2.27a1.82,1.82,0,0,0-1.77,1.8v37.44a1.8,1.8,0,0,0,1.77,1.76h2.74a1.81,1.81,0,0,0,1.78-1.82V129.49a23.89,23.89,0,0,1,.68-5.89A13.41,13.41,0,0,1,627.6,119a9.47,9.47,0,0,1,3.63-3,12.17,12.17,0,0,1,5.29-1c3,0,5.17.92,6.54,2.75a12.05,12.05,0,0,1,2.07,7.5v24.09a1.83,1.83,0,0,0,1.77,1.83h2.75a1.83,1.83,0,0,0,1.77-1.8V124.57a21.75,21.75,0,0,0-.85-6.21,12.69,12.69,0,0,0-2.61-4.88"/><path class="cls-1" d="M608.88,142.86a4.05,4.05,0,0,0-3.16,1.32,4.38,4.38,0,0,0,6.22,6.17l.09-.09a4.45,4.45,0,0,0,0-6.08,4.06,4.06,0,0,0-3.1-1.32"/><path class="cls-1" d="M52.26,54.08a6.47,6.47,0,0,1,7.16,0A158.07,158.07,0,0,1,75.24,65.47s1.37,1,1.41-.66c0,0-.23-4.75.35-6.21a2.8,2.8,0,0,1,2.64-1.91s6.21.31,10.16.84A3.86,3.86,0,0,1,93.05,61s2.53,16.93,3.1,23c0,0,.5,3.1,5,8.36,0,0,9.07,12.74,10.19,15.24,0,0,2.13,4.44-2.43,5,0,0-8.35.83-9.13,1A2.07,2.07,0,0,0,97.9,116V116s-.43,29.42-2.59,43.57c0,0-.56,5.61-3.67,5.46,0,0-8.56-.28-10.55-.21,0,0-.87.06-.74-1.15,0,0,4.36-45.9,1.4-69.11,0,0-.11-3-2.41-3.62,0,0-2.07-.83-4.07,1.91,0,0-13.57,17.24-13.55,41.41,0,0-.25,7.34.87,9.22,0,0,.69,1.28,4.23,1.57l4.49.6s.84,0,.77,1.1c0,0-1,13.46-1.32,15.85a4.53,4.53,0,0,1-.34,1.59s-.16.46-1.57.41c0,0-19.8-.15-22,0,0,0-.93.09-1.14-.49s-1.38-17.38-1.34-19.77a1.24,1.24,0,0,1,.7-1.18,11.91,11.91,0,0,0,5.5-8.74s.28-1.4.11-7.7c0,0,.72-25.83.91-30,0,0,.16-1.39-1.68-1.66a1.7,1.7,0,0,0-2,1.26l0,.15s-1.28,17-1,23.82c0,0,.43,4.41-2.61,4.49,0,0-3,.45-3.11-3.22,0,0,.22-16.57.94-24.74a1.75,1.75,0,0,0-1.62-1.79,1.79,1.79,0,0,0-2,1.49.77.77,0,0,0,0,.15S37,112.58,37.28,121c0,0,.38,4.06-2.87,3.9,0,0-2.7.32-2.85-3.28,0,0,.74-22.68.93-24.44a1.83,1.83,0,0,0-1.58-2l-.18,0a1.75,1.75,0,0,0-2,1.51,1,1,0,0,0,0,.17s-1.21,27.12-1,35.08c0,0-.12,8.19,5.93,11.51,0,0,.89.52.91,1.3,0,0,.68,14.39,1.29,19,0,0,.23,1.11-.76,1.11l-15.21.42s-2.53.17-3.11-3c-.49-2.91-3.28-26.92-2.82-46a2.32,2.32,0,0,0-1.86-2.5s-7.78-.72-9.67-1.19A3.24,3.24,0,0,1,.1,108.65a3,3,0,0,1,.35-.83S17.3,75.75,52.26,54.08"/></svg>