<?xml version="1.0" encoding="utf-8"?>
<!-- Generator: Adobe Illustrator 24.3.0, SVG Export Plug-In . SVG Version: 6.00 Build 0)  -->
<svg version="1.1" id="Layer_1" xmlns="http://www.w3.org/2000/svg" xmlns:xlink="http://www.w3.org/1999/xlink" x="0px" y="0px"
	 viewBox="0 0 337.8 100.5" style="enable-background:new 0 0 337.8 100.5;" xml:space="preserve">
<style type="text/css">
	.st0{fill:#FFFFFF;}
</style>
<path class="st0" d="M157.8,70.3V51.5c0-0.8,0.7-1.5,1.5-1.5h7.9c0.8,0,1.5,0.7,1.5,1.5v17.3c0,4.5,1.7,8.2,6.6,8.2
	c4.8,0,7.1-3.5,7.1-8.2V51.5c0-0.8,0.7-1.5,1.5-1.5h7.9c0.8,0,1.5,0.7,1.5,1.5v33.1c0,0.8-0.7,1.5-1.5,1.5h-7.2
	c-0.8,0-1.5-0.7-1.5-1.5v-2h-0.1c-1.9,2.6-5.5,4.4-10.1,4.4C162.3,87,157.8,80,157.8,70.3z"/>
<path class="st0" d="M260.9,68.1c0-8.8,5.4-18.9,18.5-18.9c13.1,0,18.2,10.1,18.2,18.9c0,0.7-0.1,1.6-0.2,2.5
	c-0.1,0.7-0.7,1.3-1.4,1.3l-23.1,0c-0.5,0-0.9,0.5-0.7,1c1.4,3.2,4.8,4.7,8.1,4.7c2.7,0,5.3-0.8,7-2c0.6-0.4,1.4-0.4,1.9,0.1
	l4.6,4.4c0.6,0.6,0.6,1.5,0,2.1c-2.9,2.8-7.9,4.9-13.8,4.9C266.9,87,260.9,76.9,260.9,68.1z M272.6,64.3H286c0.5,0,0.8-0.5,0.7-1
	c-1.1-3.6-4-5.1-7.3-5.1c-3.4,0-6.3,1.5-7.4,5.1C271.8,63.8,272.1,64.3,272.6,64.3z"/>
<path class="st0" d="M116.3,40.1c0-0.8,0.7-1.5,1.5-1.5h19c9.9,0,17.1,7,17.1,16.1c0,9.1-7.2,16.1-17.1,16.1h-7.4
	c-0.8,0-1.5,0.7-1.5,1.5v12.3c0,0.8-0.7,1.5-1.5,1.5h-8.6c-0.8,0-1.5-0.7-1.5-1.5V40.1z M135.6,61.1c3.6,0,6.4-2.6,6.4-6.4
	c0-3.8-2.8-6.4-6.4-6.4h-7.1c-0.4,0-0.7,0.3-0.7,0.7v11.2c0,0.4,0.3,0.7,0.7,0.7H135.6z"/>
<path class="st0" d="M198.4,50h7.2c0.8,0,1.5,0.7,1.5,1.5v2h0.1c1.9-2.6,5.6-4.4,10.4-4.4c10.6,0,15.2,7,15.2,16.6v18.8
	c0,0.8-0.7,1.5-1.5,1.5h-7.9c-0.8,0-1.5-0.7-1.5-1.5V67.5c0-4.6-1.8-8.4-7-8.4c-5,0-7.2,3.6-7.2,8.4v17.2c0,0.8-0.7,1.5-1.5,1.5
	h-7.9c-0.8,0-1.5-0.7-1.5-1.5V51.5C197,50.7,197.6,50,198.4,50z"/>
<path class="st0" d="M303.4,50h7.2c0.8,0,1.5,0.7,1.5,1.5v2h0.1c1.9-2.6,5.6-4.4,10.4-4.4c10.6,0,15.2,7,15.2,16.6v18.8
	c0,0.8-0.7,1.5-1.5,1.5h-7.9c-0.8,0-1.5-0.7-1.5-1.5V67.5c0-4.6-1.8-8.4-7-8.4c-5,0-7.2,3.6-7.2,8.4v17.2c0,0.8-0.7,1.5-1.5,1.5
	h-7.9c-0.8,0-1.5-0.7-1.5-1.5V51.5C302,50.7,302.6,50,303.4,50z"/>
<path class="st0" d="M236.6,71.9V41.7c0-0.8,0.7-1.5,1.5-1.5h7.9c0.8,0,1.5,0.7,1.5,1.5v7.6c0,0.4,0.3,0.7,0.7,0.7h10
	c0.8,0,1.5,0.7,1.5,1.5v6.4c0,0.8-0.7,1.5-1.5,1.5h-10c-0.4,0-0.7,0.3-0.7,0.7v11.7c0,3.6,1.9,5.3,4.8,5.3c1.3,0,2.6-0.4,3.7-1
	c0.7-0.4,1.7-0.2,2.1,0.6l2.7,5.6c0.3,0.6,0.1,1.4-0.4,1.8c-2.6,1.9-6.1,2.8-10.2,2.8C241.2,86.9,236.6,81.9,236.6,71.9z"/>
<path id="House_6_" class="st0" d="M46.8,1c1.9-1.3,4.5-1.3,6.4,0c4.9,3.1,9.7,6.5,14.2,10.2c0,0,1.2,0.9,1.3-0.6
	c0,0-0.2-4.3,0.3-5.6c0.3-1,1.3-1.7,2.4-1.7c0,0,5.6,0.3,9.1,0.8c1.6,0.2,2.8,1.5,2.9,3.1c0,0,2.3,15.2,2.8,20.6
	c0,0,0.4,2.8,4.5,7.5c0,0,8.1,11.4,9.1,13.6c0,0,1.9,4-2.2,4.5c0,0-7.5,0.8-8.2,0.9c-1,0.1-1.8,1-1.7,2c0,0,0,0,0,0.1
	c0,0-0.4,26.4-2.3,39c0,0-0.5,5-3.3,4.9c0,0-7.7-0.3-9.4-0.2c0,0-0.8,0.1-0.7-1c0,0,3.9-41.1,1.3-61.9c0,0-0.1-2.7-2.2-3.2
	c0,0-1.9-0.8-3.6,1.7c0,0-12.2,15.4-12.1,37.1c0,0-0.2,6.6,0.8,8.3c0,0,0.6,1.1,3.8,1.4l4,0.5c0,0,0.8,0,0.7,1
	c0,0-0.9,12.1-1.2,14.2c0,0.5-0.1,1-0.3,1.4c0,0-0.1,0.4-1.4,0.4c0,0-17.7-0.1-19.7,0c0,0-0.8,0.1-1-0.4C40.7,99,39.7,84,39.7,81.8
	c0-0.4,0.2-0.9,0.6-1.1c2.7-1.7,4.6-4.6,4.9-7.8c0,0,0.3-1.3,0.1-6.9c0,0,0.6-23.1,0.8-26.8c0,0,0.1-1.3-1.5-1.5
	c-0.8-0.2-1.6,0.3-1.8,1.1c0,0,0,0.1,0,0.1c0,0-1.1,15.3-0.9,21.3c0,0,0.4,4-2.3,4c0,0-2.7,0.4-2.8-2.9c0,0,0.2-14.8,0.8-22.2
	c0-0.8-0.6-1.5-1.5-1.6c-0.9-0.1-1.7,0.5-1.8,1.3c0,0,0,0.1,0,0.1c0,0-1.1,14.2-0.9,21.7c0,0,0.3,3.6-2.6,3.5c0,0-2.4,0.3-2.6-2.9
	c0,0,0.7-20.3,0.8-21.9c0.1-0.9-0.5-1.7-1.4-1.8c-0.1,0-0.1,0-0.2,0c-0.9-0.1-1.6,0.5-1.8,1.3c0,0.1,0,0.1,0,0.2
	c0,0-1.1,24.3-0.9,31.4c0,0-0.1,7.3,5.3,10.3c0,0,0.8,0.5,0.8,1.2c0,0,0.6,12.9,1.2,17c0,0,0.2,1-0.7,1l-13.6,0.4
	c0,0-2.3,0.2-2.8-2.6c-0.4-2.6-2.9-24.1-2.5-41.2c0.1-1.1-0.6-2-1.7-2.2c0,0-7-0.6-8.7-1.1c-1.5-0.4-2.5-2-2.1-3.5
	c0.1-0.3,0.2-0.5,0.3-0.7C0.4,49.1,15.5,20.4,46.8,1z"/>
</svg>
