<?xml version="1.0" encoding="utf-8"?>
<!-- Generator: Adobe Illustrator 24.3.0, SVG Export Plug-In . SVG Version: 6.00 Build 0)  -->
<svg version="1.1" id="Layer_1" xmlns="http://www.w3.org/2000/svg" xmlns:xlink="http://www.w3.org/1999/xlink" x="0px" y="0px"
	 viewBox="0 0 61 61.4" style="enable-background:new 0 0 61 61.4;" xml:space="preserve">
<style type="text/css">
	.st0{fill:#FFFFFF;}
</style>
<g id="TakeawayCOM_Full_Colour">
	<g id="House">
		<path class="st0" d="M28.3,0.6c1.2-0.8,2.7-0.8,3.9,0c3,1.9,5.9,4,8.7,6.2c0,0,0.8,0.5,0.8-0.4c-0.1-1.1,0-2.3,0.2-3.4
			c0.2-0.6,0.8-1,1.4-1c0,0,3.4,0.2,5.6,0.5c1,0.1,1.7,0.9,1.8,1.9c0,0,1.4,9.3,1.7,12.6c0,0,0.3,1.7,2.7,4.6c0,0,5,7,5.6,8.3
			c0,0,1.2,2.4-1.3,2.7c0,0-4.6,0.5-5,0.6c-0.6,0.1-1.1,0.6-1,1.2l0,0c0,0-0.2,16.1-1.4,23.8c0,0-0.3,3.1-2,3c0,0-4.7-0.1-5.8-0.1
			c0,0-0.5,0-0.4-0.6c0,0,2.4-25.1,0.8-37.8c0,0-0.1-1.6-1.3-2c0,0-1.1-0.5-2.2,1c-4.7,6.6-7.3,14.5-7.4,22.7c0,0-0.1,4,0.5,5
			c0,0,0.4,0.7,2.3,0.9l2.5,0.3c0,0,0.4,0,0.4,0.6c0,0-0.6,7.4-0.7,8.7c0,0.3-0.1,0.6-0.2,0.9c0,0-0.1,0.3-0.9,0.2
			c0,0-10.8-0.1-12.1,0c0,0-0.5,0-0.6-0.3s-0.8-9.5-0.7-10.8c0-0.3,0.1-0.5,0.4-0.6c1.7-1.1,2.8-2.8,3-4.8c0.1-1.4,0.2-2.8,0.1-4.2
			c0,0,0.4-14.1,0.5-16.4c0,0,0.1-0.8-0.9-0.9c-0.5-0.1-1,0.2-1.1,0.7l0,0c0,0,0,0,0,0.1s-0.7,9.3-0.6,13c0,0,0.2,2.4-1.4,2.5
			c0,0-1.6,0.2-1.7-1.8c0,0,0.1-9.1,0.5-13.5c0-0.5-0.4-0.9-0.9-1s-1,0.3-1.1,0.8v0.1c0,0-0.7,8.7-0.6,13.2c0,0,0.2,2.2-1.6,2.1
			c0,0-1.5,0.2-1.6-1.8c0,0,0.4-12.4,0.5-13.4c0-0.5-0.4-0.9-0.9-0.9h-0.1c-0.5,0-1,0.3-1.1,0.8V24c0,0-0.7,14.8-0.6,19.2
			c0,0-0.1,4.5,3.3,6.3c0,0,0.5,0.3,0.5,0.7c0,0,0.4,7.9,0.7,10.4c0,0,0.1,0.6-0.4,0.6l-8.3,0.2c-0.9,0-1.7-0.7-1.7-1.6
			C8,51.5,7.5,43.1,7.6,34.6c0.1-0.6-0.4-1.2-1-1.4c0,0-4.3-0.4-5.3-0.7c-0.9-0.2-1.5-1.2-1.3-2.1c0-0.2,0.1-0.3,0.2-0.5
			C7,18.1,16.7,8,28.3,0.6z"/>
	</g>
</g>
</svg>
