<?xml version="1.0" encoding="utf-8"?>
<!-- Generator: Adobe Illustrator 24.3.0, SVG Export Plug-In . SVG Version: 6.00 Build 0)  -->
<svg version="1.1" id="Layer_1" xmlns="http://www.w3.org/2000/svg" xmlns:xlink="http://www.w3.org/1999/xlink" x="0px" y="0px"
	 viewBox="0 0 349.4 103.8" style="enable-background:new 0 0 349.4 103.8;" xml:space="preserve">
<style type="text/css">
	.st0{fill:#FFFFFF;}
</style>
<g>
	<path class="st0" d="M119.6,44.8c0-0.8,0.7-1.5,1.5-1.5h18.8c9.9,0,17,7,17,16c0,9.1-7.1,16-17,16h-7.4c-0.8,0-1.5,0.7-1.5,1.5
		v12.1c0,0.8-0.7,1.5-1.5,1.5h-8.5c-0.8,0-1.5-0.7-1.5-1.5V44.8z M138.8,65.6c3.6,0,6.4-2.5,6.4-6.3c0-3.8-2.8-6.3-6.4-6.3h-6.3
		c-0.8,0-1.5,0.7-1.5,1.5v9.6c0,0.8,0.7,1.5,1.5,1.5H138.8z"/>
	<path class="st0" d="M161.5,74.7V56.1c0-0.8,0.7-1.5,1.5-1.5h7.8c0.8,0,1.5,0.7,1.5,1.5v17.1c0,4.5,1.7,8.2,6.5,8.2
		c4.8,0,7-3.5,7-8.2V56.1c0-0.8,0.7-1.5,1.5-1.5h7.8c0.8,0,1.5,0.7,1.5,1.5v32.8c0,0.8-0.7,1.5-1.5,1.5h-8.6v-3.5h-0.1
		c-1.9,2.6-5.4,4.3-10,4.3C166,91.3,161.5,84.3,161.5,74.7z"/>
	<path class="st0" d="M204.1,56.1c0-0.8,0.7-1.5,1.5-1.5h8.6v3.5h0.1c1.9-2.6,5.6-4.3,10.3-4.3c10.5,0,15.1,7,15.1,16.5v18.7
		c0,0.8-0.7,1.5-1.5,1.5h-7.8c-0.8,0-1.5-0.7-1.5-1.5v-17c0-4.6-1.8-8.3-7-8.3c-4.9,0-7.2,3.6-7.2,8.3v17c0,0.8-0.7,1.5-1.5,1.5
		h-7.8c-0.8,0-1.5-0.7-1.5-1.5V56.1z"/>
	<path class="st0" d="M255.6,90.4h-7.8c-0.8,0-1.5-0.7-1.5-1.5V40.8c0-0.8,0.7-1.5,1.5-1.5h7.8c0.8,0,1.5,0.7,1.5,1.5v23.7
		c0,1.3,1.6,2,2.6,1l9.8-10.4c0.3-0.3,0.7-0.5,1.1-0.5h9c1.3,0,2,1.5,1.1,2.5l-11.2,12.1c-0.5,0.5-0.5,1.3-0.1,1.9L281.9,88
		c0.7,1,0,2.4-1.2,2.4h-9.2c-0.5,0-0.9-0.2-1.2-0.6l-8.3-10.8c-0.5-0.7-1.6-0.8-2.2-0.1l-2.4,2.4c-0.3,0.3-0.4,0.7-0.4,1v6.6
		C257.1,89.7,256.4,90.4,255.6,90.4z"/>
	<path class="st0" d="M285,76.3v-30c0-0.8,0.7-1.5,1.5-1.5h7.8c0.8,0,1.5,0.7,1.5,1.5v6.7c0,0.8,0.7,1.5,1.5,1.5h9.1
		c0.8,0,1.5,0.7,1.5,1.5v6.3c0,0.8-0.7,1.5-1.5,1.5h-9.1c-0.8,0-1.5,0.7-1.5,1.5v10.8c0,3.6,1.9,5.3,4.8,5.3c1.3,0,2.5-0.4,3.6-1
		c0.8-0.4,1.7-0.2,2.1,0.6l2.7,5.5c0.3,0.6,0.2,1.4-0.4,1.8c-2.6,1.9-6.1,2.8-10.1,2.8C289.6,91.2,285,86.3,285,76.3z"/>
	<path class="st0" d="M320.1,101.8l4.3-10.8c0.1-0.4,0.1-0.7,0-1.1l-13-33.2c-0.4-1,0.3-2,1.4-2h8.5c0.6,0,1.2,0.4,1.4,1l7.8,21.8
		h0.1l7.8-21.8c0.2-0.6,0.8-1,1.4-1h8.2c1,0,1.8,1.1,1.4,2l-18.2,46.2c-0.2,0.6-0.8,0.9-1.4,0.9h-8.3
		C320.4,103.8,319.7,102.7,320.1,101.8z"/>
</g>
<path id="House_7_" class="st0" d="M46.8,1c1.9-1.3,4.5-1.3,6.4,0c4.9,3.1,9.7,6.5,14.2,10.2c0,0,1.2,0.9,1.3-0.6
	c0,0-0.2-4.3,0.3-5.6c0.3-1,1.3-1.7,2.4-1.7c0,0,5.6,0.3,9.1,0.8c1.6,0.2,2.8,1.5,2.9,3.1c0,0,2.3,15.2,2.8,20.6
	c0,0,0.4,2.8,4.5,7.5c0,0,8.1,11.4,9.1,13.6c0,0,1.9,4-2.2,4.5c0,0-7.5,0.8-8.2,0.9c-1,0.1-1.8,1-1.7,2c0,0,0,0,0,0.1
	c0,0-0.4,26.4-2.3,39c0,0-0.5,5-3.3,4.9c0,0-7.7-0.3-9.4-0.2c0,0-0.8,0.1-0.7-1c0,0,3.9-41.1,1.3-61.9c0,0-0.1-2.7-2.2-3.2
	c0,0-1.9-0.8-3.6,1.7c0,0-12.2,15.4-12.1,37.1c0,0-0.2,6.6,0.8,8.3c0,0,0.6,1.1,3.8,1.4l4,0.5c0,0,0.8,0,0.7,1
	c0,0-0.9,12.1-1.2,14.2c0,0.5-0.1,1-0.3,1.4c0,0-0.1,0.4-1.4,0.4c0,0-17.7-0.1-19.7,0c0,0-0.8,0.1-1-0.4C40.7,99,39.7,84,39.7,81.8
	c0-0.4,0.2-0.9,0.6-1.1c2.7-1.7,4.6-4.6,4.9-7.8c0,0,0.3-1.3,0.1-6.9c0,0,0.6-23.1,0.8-26.8c0,0,0.1-1.3-1.5-1.5
	c-0.8-0.2-1.6,0.3-1.8,1.1c0,0,0,0.1,0,0.1c0,0-1.1,15.3-0.9,21.3c0,0,0.4,4-2.3,4c0,0-2.7,0.4-2.8-2.9c0,0,0.2-14.8,0.8-22.2
	c0-0.8-0.6-1.5-1.5-1.6c-0.9-0.1-1.7,0.5-1.8,1.3c0,0,0,0.1,0,0.1c0,0-1.1,14.2-0.9,21.7c0,0,0.3,3.6-2.6,3.5c0,0-2.4,0.3-2.6-2.9
	c0,0,0.7-20.3,0.8-21.9c0.1-0.9-0.5-1.7-1.4-1.8c-0.1,0-0.1,0-0.2,0c-0.9-0.1-1.6,0.5-1.8,1.3c0,0.1,0,0.1,0,0.2
	c0,0-1.1,24.3-0.9,31.4c0,0-0.1,7.3,5.3,10.3c0,0,0.8,0.5,0.8,1.2c0,0,0.6,12.9,1.2,17c0,0,0.2,1-0.7,1l-13.6,0.4
	c0,0-2.3,0.2-2.8-2.6c-0.4-2.6-2.9-24.1-2.5-41.2c0.1-1.1-0.6-2-1.7-2.2c0,0-7-0.6-8.7-1.1c-1.5-0.4-2.5-2-2.1-3.5
	c0.1-0.3,0.2-0.5,0.3-0.7C0.4,49.1,15.5,20.4,46.8,1z"/>
</svg>
