<?xml version="1.0" encoding="utf-8"?>
<!-- Generator: Adobe Illustrator 24.3.0, SVG Export Plug-In . SVG Version: 6.00 Build 0)  -->
<svg version="1.1" id="Ebene_1" xmlns="http://www.w3.org/2000/svg" xmlns:xlink="http://www.w3.org/1999/xlink" x="0px" y="0px"
	 viewBox="0 0 786.7 139.9" style="enable-background:new 0 0 786.7 139.9;" xml:space="preserve">
<style type="text/css">
	.st0{fill:#FFFFFF;}
</style>
<g>
	<g>
		<rect x="0" y="69.4" class="st0" width="2.5" height="0.8"/>
		<g>
			<path class="st0" d="M13,2.1C5.8,2.1,0,8,0,15.1v122.5h34.6V84.4h49.1c7.1,0,13-5.8,13-13V56.7H34.6V36.3c0-3.6,2.9-6.5,6.5-6.5
				l58.8,0c7.1,0,13-5.8,13-13V2.1H13z"/>
			<path class="st0" d="M169.1,109.7c-3.6,0-6.5-2.9-6.5-6.5V15.2c0-7.2-5.9-13.1-13.1-13.1h-21.8v122.4c0,7.2,5.9,13.1,13.1,13.1
				H212c7.2,0,13.1-5.9,13.1-13.1v-14.8H169.1z"/>
			<path class="st0" d="M275,137.4h-34.7V66.7c0-7.2,5.9-13,13-13H275V137.4z"/>
			<path class="st0" d="M262,41.2h-21.7v-26c0-7.2,5.9-13,13-13h8.7c7.2,0,13,5.9,13,13v13C275,35.3,269.2,41.2,262,41.2"/>
			<path class="st0" d="M498.7,115.5L498.7,115.5h-23.9c-6.9,0-12.5-5.6-12.5-12.5V80.3h36.2c9.5,0,17.2,7.9,17.2,17.6
				C515.7,107.6,508.1,115.4,498.7,115.5 M462.3,24.1h32.6c8.6,0,15.5,7,15.5,15.7c0,8.6-6.8,15.6-15.3,15.7h-21.5
				c-6.2,0-11.2-5-11.2-11.1V24.1z M535.8,70.8c-0.7-0.7-2.9-2.4-3.4-2.8c6.5-6.6,9.2-15.4,9.2-26.6c0-24.7-16-39.3-40.7-39.3h-53.4
				c-7.1,0-13,5.8-13,13v109.4c0,7.1,5.8,13,13,13H507c24.7,0,39.6-14.4,39.6-39.1C546.6,86.8,542.6,77.5,535.8,70.8"/>
			<path class="st0" d="M670.9,2.2h-15.5c-7.1,0-13,5.8-13,13v79.9c0,11.7-8.1,19.5-22,19.5H614c-13.9,0-22-7.8-22-19.5V2.2h-15.5
				c-7.1,0-13,5.8-13,13v84.2c0,24.2,16.6,40.3,45.3,40.3h16.6c28.7,0,45.3-16.1,45.3-40.3L670.9,2.2z"/>
			<path class="st0" d="M728.4,29.8L728.4,29.8h43.8c7.1,0,13-5.8,13-13V2.1h-56.7c-22.7,0.2-41,18.7-41,41.4
				c0,22.5,18,39.6,40.4,40.1v0h17.9h0c7.2,0.1,12.9,5.9,12.9,13.1c0,7.2-5.8,13-12.9,13.1h-0.1h-56.6v14.7c0,7.1,5.8,13,13,13h44v0
				c22.5-0.4,40.7-18.8,40.7-41.4c0-22.4-17.8-39.4-40.1-40.1v0h-18.2h0c-7.2-0.1-12.9-5.9-12.9-13.1
				C715.5,35.8,721.2,29.9,728.4,29.8"/>
			<path class="st0" d="M407.3,113.8l-23.7-32.6l-20.4,28.1l17.4,23.9c5.3,7.2,15.5,8.9,22.7,3.6l0.4-0.3
				C410.9,131.3,412.5,121.1,407.3,113.8"/>
			<path class="st0" d="M375.4,69.9L355,41.9L329.4,6.7c-5.3-7.2-15.5-8.9-22.7-3.6l-0.4,0.3c-7.2,5.3-8.8,15.5-3.6,22.7l31.8,43.8
				l-31.8,43.9c-5.3,7.3-3.7,17.5,3.5,22.8l0.4,0.3c7.2,5.3,17.4,3.6,22.7-3.6l18.8-25.8L375.4,69.9z"/>
			<path class="st0" d="M403.7,3.4l-0.4-0.3c-7.2-5.3-17.4-3.6-22.7,3.6l-17.4,23.9l20.4,28.1l23.7-32.6
				C412.5,18.8,410.9,8.6,403.7,3.4"/>
		</g>
	</g>
</g>
</svg>
