<?xml version="1.0" encoding="utf-8"?>
<!-- Generator: Adobe Illustrator 24.3.0, SVG Export Plug-In . SVG Version: 6.00 Build 0)  -->
<svg version="1.1" id="Layer_1" xmlns="http://www.w3.org/2000/svg" xmlns:xlink="http://www.w3.org/1999/xlink" x="0px" y="0px"
	 viewBox="0 0 316.9 100.5" style="enable-background:new 0 0 316.9 100.5;" xml:space="preserve">
<style type="text/css">
	.st0{display:none;}
	.st1{display:inline;opacity:0.2;fill:#F58020;}
	.st2{fill:#FFFFFF;}
</style>
<g class="st0">
	<path class="st1" d="M354.7-0.2H346c-0.4,0-0.7-0.3-0.7-0.7v-2.8h-0.1c-2.1,2.8-6.1,4.3-10.9,4.3c-10.2,0-17.7-7.8-17.7-18.4
		c0-11.4,7.2-19.1,17.7-19.1c5,0,8.9,1.6,10.9,4.3h0.1v-2.8c0-0.4,0.3-0.7,0.7-0.7h8.7c0.4,0,0.7,0.3,0.7,0.7v34.4
		C355.4-0.5,355.1-0.2,354.7-0.2z M344.7-18.1c0-4.9-3.3-8.8-8.6-8.8c-5.4,0-8.6,3.9-8.6,8.8c0,4.9,3.3,8.8,8.6,8.8
		C341.4-9.3,344.7-13.2,344.7-18.1z"/>
	<path class="st1" d="M354.7,136.9H346c-0.4,0-0.7-0.3-0.7-0.7v-2.8h-0.1c-2.1,2.8-6.1,4.3-10.9,4.3c-10.2,0-17.7-7.8-17.7-18.4
		c0-11.4,7.2-19.1,17.7-19.1c5,0,8.9,1.6,10.9,4.3h0.1v-2.8c0-0.4,0.3-0.7,0.7-0.7h8.7c0.4,0,0.7,0.3,0.7,0.7v34.4
		C355.4,136.5,355.1,136.9,354.7,136.9z M344.7,119c0-4.9-3.3-8.8-8.6-8.8c-5.4,0-8.6,3.9-8.6,8.8c0,4.9,3.3,8.8,8.6,8.8
		C341.4,127.7,344.7,123.8,344.7,119z"/>
	<path class="st1" d="M3.4,136.6h-8.7c-0.4,0-0.7-0.3-0.7-0.7v-2.8h-0.1c-2.1,2.8-6.1,4.3-10.9,4.3c-10.2,0-17.7-7.8-17.7-18.4
		c0-11.4,7.2-19.1,17.7-19.1c5,0,8.9,1.6,10.9,4.3h0.1v-2.8c0-0.4,0.3-0.7,0.7-0.7h8.7c0.4,0,0.7,0.3,0.7,0.7v34.4
		C4.1,136.3,3.8,136.6,3.4,136.6z M-6.6,118.7c0-4.9-3.3-8.8-8.6-8.8c-5.4,0-8.6,3.9-8.6,8.8c0,4.9,3.3,8.8,8.6,8.8
		C-9.9,127.5-6.6,123.6-6.6,118.7z"/>
	<path class="st1" d="M3.4-0.4h-8.7c-0.4,0-0.7-0.3-0.7-0.7v-2.8h-0.1c-2.1,2.8-6.1,4.3-10.9,4.3c-10.2,0-17.7-7.8-17.7-18.4
		c0-11.4,7.2-19.1,17.7-19.1c5,0,8.9,1.6,10.9,4.3h0.1v-2.8c0-0.4,0.3-0.7,0.7-0.7h8.7c0.4,0,0.7,0.3,0.7,0.7v34.4
		C4.1-0.7,3.8-0.4,3.4-0.4z M-6.6-18.3c0-4.9-3.3-8.8-8.6-8.8c-5.4,0-8.6,3.9-8.6,8.8c0,4.9,3.3,8.8,8.6,8.8
		C-9.9-9.5-6.6-13.4-6.6-18.3z"/>
</g>
<g>
	<g>
		<path class="st2" d="M115.9,42.4c0-0.8,0.7-1.5,1.5-1.5h18.8c9.9,0,17,7,17,16c0,9.1-7.1,16-17,16h-7.4c-0.8,0-1.5,0.7-1.5,1.5
			v12.1c0,0.8-0.7,1.5-1.5,1.5h-8.5c-0.8,0-1.5-0.7-1.5-1.5V42.4z M135.1,63.2c3.6,0,6.4-2.5,6.4-6.3c0-3.8-2.8-6.3-6.4-6.3h-6.3
			c-0.8,0-1.5,0.7-1.5,1.5v9.6c0,0.8,0.7,1.5,1.5,1.5H135.1z"/>
		<path class="st2" d="M155.9,70.1c0-8.8,6.2-18.8,19.2-18.8c13,0,19.2,10,19.2,18.8c0,8.8-6.2,18.8-19.2,18.8
			C162.1,88.9,155.9,78.9,155.9,70.1z M175.1,78.7c4.5,0,8.3-3.6,8.3-8.6c0-5.1-3.8-8.6-8.3-8.6c-4.5,0-8.3,3.6-8.3,8.6
			C166.9,75.2,170.7,78.7,175.1,78.7z"/>
		<path class="st2" d="M205.2,48.7c-4,0-6.4-2.8-6.4-6c0-3.3,2.4-6.1,6.4-6.1c4,0,6.4,2.8,6.4,6.1C211.6,45.9,209.2,48.7,205.2,48.7
			z M201.3,52.2h7.8c0.8,0,1.5,0.7,1.5,1.5v32.8c0,0.8-0.7,1.5-1.5,1.5h-7.8c-0.8,0-1.5-0.7-1.5-1.5V53.7
			C199.9,52.9,200.5,52.2,201.3,52.2z"/>
		<path class="st2" d="M218.1,53.7c0-0.8,0.7-1.5,1.5-1.5h8.6v3.5h0.1c1.9-2.6,5.6-4.3,10.3-4.3c10.5,0,15.1,7,15.1,16.5v18.7
			c0,0.8-0.7,1.5-1.5,1.5h-7.8c-0.8,0-1.5-0.7-1.5-1.5v-17c0-4.6-1.8-8.3-7-8.3c-4.9,0-7.2,3.6-7.2,8.3v17c0,0.8-0.7,1.5-1.5,1.5
			h-7.8c-0.8,0-1.5-0.7-1.5-1.5V53.7z"/>
		<path class="st2" d="M260,73.9V44c0-0.8,0.7-1.5,1.5-1.5h7.8c0.8,0,1.5,0.7,1.5,1.5v6.7c0,0.8,0.7,1.5,1.5,1.5h9.1
			c0.8,0,1.5,0.7,1.5,1.5V60c0,0.8-0.7,1.5-1.5,1.5h-9.1c-0.8,0-1.5,0.7-1.5,1.5v10.8c0,3.6,1.9,5.3,4.8,5.3c1.3,0,2.5-0.4,3.6-1
			c0.8-0.4,1.7-0.2,2.1,0.6l2.7,5.5c0.3,0.6,0.2,1.4-0.4,1.8c-2.6,1.9-6.1,2.8-10.1,2.8C264.6,88.8,260,83.9,260,73.9z"/>
		<path class="st2" d="M297.5,73.7c-5.8-1-11-4.2-11-10.9c0-7.4,6.5-11.5,15.6-11.5c6.1,0,10.7,1.8,13.5,4.1
			c0.7,0.5,0.7,1.5,0.2,2.2l-4.2,4.7c-0.5,0.6-1.4,0.7-2,0.2c-1.8-1.4-4.5-2.3-7.1-2.3c-2.8,0-5.1,0.7-5.1,2.6c0,2,3.2,2.5,8.5,3.4
			c5.8,1,11,4.1,11,10.8c0,7.5-6.8,11.9-16.1,11.9c-6.7,0-11.7-1.7-14.6-4.1c-0.7-0.5-0.7-1.5-0.2-2.2l4.3-4.9
			c0.5-0.6,1.4-0.6,2-0.2c2.3,1.6,5.1,2.3,8.3,2.3c3,0,5.3-0.7,5.3-2.7C306,75.2,302.8,74.7,297.5,73.7z"/>
	</g>
	<path id="House_9_" class="st2" d="M46.8,1c1.9-1.3,4.5-1.3,6.4,0c4.9,3.1,9.7,6.5,14.2,10.2c0,0,1.2,0.9,1.3-0.6
		c0,0-0.2-4.3,0.3-5.6c0.3-1,1.3-1.7,2.4-1.7c0,0,5.6,0.3,9.1,0.8c1.6,0.2,2.8,1.5,2.9,3.1c0,0,2.3,15.2,2.8,20.6
		c0,0,0.4,2.8,4.5,7.5c0,0,8.1,11.4,9.1,13.6c0,0,1.9,4-2.2,4.5c0,0-7.5,0.8-8.2,0.9c-1,0.1-1.8,1-1.7,2c0,0,0,0,0,0.1
		c0,0-0.4,26.4-2.3,39c0,0-0.5,5-3.3,4.9c0,0-7.7-0.3-9.4-0.2c0,0-0.8,0.1-0.7-1c0,0,3.9-41.1,1.3-61.9c0,0-0.1-2.7-2.2-3.2
		c0,0-1.9-0.8-3.6,1.7c0,0-12.2,15.4-12.1,37.1c0,0-0.2,6.6,0.8,8.3c0,0,0.6,1.1,3.8,1.4l4,0.5c0,0,0.8,0,0.7,1
		c0,0-0.9,12.1-1.2,14.2c0,0.5-0.1,1-0.3,1.4c0,0-0.1,0.4-1.4,0.4c0,0-17.7-0.1-19.7,0c0,0-0.8,0.1-1-0.4C40.7,99,39.7,84,39.7,81.8
		c0-0.4,0.2-0.9,0.6-1.1c2.7-1.7,4.6-4.6,4.9-7.8c0,0,0.3-1.3,0.1-6.9c0,0,0.6-23.1,0.8-26.8c0,0,0.1-1.3-1.5-1.5
		c-0.8-0.2-1.6,0.3-1.8,1.1c0,0,0,0.1,0,0.1c0,0-1.1,15.3-0.9,21.3c0,0,0.4,4-2.3,4c0,0-2.7,0.4-2.8-2.9c0,0,0.2-14.8,0.8-22.2
		c0-0.8-0.6-1.5-1.5-1.6c-0.9-0.1-1.7,0.5-1.8,1.3c0,0,0,0.1,0,0.1c0,0-1.1,14.2-0.9,21.7c0,0,0.3,3.6-2.6,3.5c0,0-2.4,0.3-2.6-2.9
		c0,0,0.7-20.3,0.8-21.9c0.1-0.9-0.5-1.7-1.4-1.8c-0.1,0-0.1,0-0.2,0c-0.9-0.1-1.6,0.5-1.8,1.3c0,0.1,0,0.1,0,0.2
		c0,0-1.1,24.3-0.9,31.4c0,0-0.1,7.3,5.3,10.3c0,0,0.8,0.5,0.8,1.2c0,0,0.6,12.9,1.2,17c0,0,0.2,1-0.7,1l-13.6,0.4
		c0,0-2.3,0.2-2.8-2.6c-0.4-2.6-2.9-24.1-2.5-41.2c0.1-1.1-0.6-2-1.7-2.2c0,0-7-0.6-8.7-1.1c-1.5-0.4-2.5-2-2.1-3.5
		c0.1-0.3,0.2-0.5,0.3-0.7C0.4,49.1,15.5,20.4,46.8,1z"/>
</g>
</svg>
