<?xml version="1.0" encoding="utf-8"?>
<!-- Generator: Adobe Illustrator 24.3.0, SVG Export Plug-In . SVG Version: 6.00 Build 0)  -->
<svg version="1.1" id="layer" xmlns="http://www.w3.org/2000/svg" xmlns:xlink="http://www.w3.org/1999/xlink" x="0px" y="0px"
	 viewBox="0 0 600.1 70.5" style="enable-background:new 0 0 600.1 70.5;" xml:space="preserve">
<style type="text/css">
	.st0{fill:#FFFFFF;}
</style>
<g id="Mobile-Menu">
	<g id="LM-Header-Mobile-_x28_Guidelines_x29__x28_Open-menu_x29_" transform="translate(-74.000000, -22.000000)">
		<g id="Lastminute_Negative_logo_RGB" transform="translate(74.000000, 22.000000)">
			<path id="Fill-2" class="st0" d="M20.6,59.1c-1.6-0.1-2.9-0.4-3.8-0.8c-0.9-0.4-1.7-0.9-2.2-1.6s-0.8-1.5-1-2.4s-0.3-2-0.3-3.2V0
				L0,2.1v51.6c0,2.5,0.3,4.7,0.8,6.7s1.5,3.7,2.9,5.1S7,68,9.4,68.8c2.4,0.8,5.5,1.2,9.4,1.2L20.6,59.1z M39.9,58.7
				c-1.4-0.8-2.1-2.2-2.1-4.3c0-1.1,0.2-2,0.7-2.7s1.1-1.3,2-1.7c0.8-0.4,1.8-0.7,2.9-0.8c1.1-0.1,2.3-0.2,3.5-0.2
				c0.9,0,1.9,0.1,2.9,0.2c1.1,0.1,1.9,0.2,2.4,0.4v10.1c-0.7,0.1-1.7,0.2-2.8,0.3c-1.2,0.1-2.4,0.1-3.7,0.1
				C43.2,59.9,41.3,59.5,39.9,58.7L39.9,58.7z M40,21.3c-1.5,0.1-3,0.3-4.3,0.5c-1.4,0.2-2.6,0.4-3.8,0.7c-1.2,0.3-2.1,0.5-2.9,0.8
				L30.7,34c1.6-0.6,3.5-1.1,5.7-1.4c2.2-0.3,4.4-0.5,6.7-0.5c3.4,0,5.8,0.7,7.1,2c1.4,1.4,2,3.2,2,5.4v1.2
				c-0.8-0.2-1.9-0.4-3.2-0.6c-1.3-0.1-2.9-0.2-4.6-0.2c-2.6,0-5,0.3-7.4,0.8s-4.5,1.3-6.3,2.4s-3.3,2.6-4.4,4.5
				c-1.1,1.9-1.6,4.2-1.6,6.9c0,2.9,0.5,5.3,1.4,7.2c0.9,2,2.3,3.6,4.1,4.8c1.8,1.2,3.9,2.1,6.4,2.6c2.5,0.5,5.2,0.8,8.2,0.8
				c4.8,0,8.9-0.3,12.3-0.8c3.4-0.6,6-1.1,7.9-1.5V40.2c0-2.9-0.3-5.6-1-7.9c-0.7-2.4-1.8-4.4-3.3-6.1c-1.6-1.7-3.7-2.9-6.3-3.8
				c-2.6-0.9-5.9-1.3-9.8-1.3C43,21,41.5,21.1,40,21.3L40,21.3z M79.8,58.9c-2.4-0.5-4.7-1.2-7-2.1l-2.2,10.8c1.1,0.5,3,1.1,5.7,1.8
				c2.8,0.7,6.2,1.1,10.4,1.1c6.4,0,11.3-1.2,14.7-3.6c3.5-2.4,5.2-5.9,5.2-10.5c0-2-0.2-3.7-0.7-5.2c-0.4-1.5-1.2-2.8-2.3-4
				s-2.6-2.3-4.5-3.4c-1.9-1-4.3-2.1-7.2-3.2c-1.4-0.5-2.6-1-3.5-1.5c-0.9-0.4-1.6-0.9-2.2-1.3c-0.5-0.4-0.9-0.8-1.1-1.2
				c-0.2-0.4-0.3-0.9-0.3-1.4c0-2.3,2.1-3.5,6.2-3.5c2.3,0,4.3,0.2,6.1,0.6s3.5,0.9,5,1.4l2.3-10.3c-1.5-0.6-3.6-1.1-6.2-1.6
				C95.6,21.3,92.9,21,90,21c-5.7,0-10.2,1.3-13.5,3.8c-3.3,2.6-4.9,6-4.9,10.4c0,2.3,0.3,4.2,1,5.8c0.7,1.6,1.6,3,2.8,4.1
				c1.2,1.2,2.6,2.2,4.3,3s3.6,1.6,5.7,2.4c2.7,1,4.7,1.9,6,2.7c1.3,0.8,2,1.7,2,2.8c0,1.4-0.5,2.3-1.5,2.8s-2.7,0.7-5.2,0.7
				C84.5,59.6,82.2,59.4,79.8,58.9L79.8,58.9z M111.7,50c0,3,0.3,5.8,0.8,8.3c0.6,2.5,1.6,4.6,3,6.4s3.3,3.1,5.7,4.1s5.4,1.5,9,1.5
				c2.9,0,5.3-0.2,7.2-0.7c2-0.5,3.7-1,5.3-1.7l-1.9-10.3c-1.2,0.5-2.6,0.8-4.1,1.1c-1.5,0.3-3,0.4-4.4,0.4c-3,0-4.9-0.8-5.9-2.5
				s-1.5-3.9-1.5-6.7V33.4h15.9v-11h-15.9V8.6l-13.3,2.1L111.7,50L111.7,50z M174.8,69.1h13.3V43.5c0-1.7-0.1-3.3-0.2-4.9
				c-0.1-1.5-0.4-3-0.8-4.3c0.8-0.5,1.9-1,3.2-1.3c1.3-0.4,2.3-0.5,3-0.5c2.7,0,4.6,0.9,5.7,2.7c1.1,1.8,1.6,4.8,1.6,9.1v24.9h13.2
				V42.7c0-3.2-0.3-6.1-0.8-8.7s-1.5-4.9-2.9-6.8s-3.3-3.4-5.7-4.4s-5.5-1.6-9.2-1.6c-2.1,0-4.3,0.4-6.8,1.2
				c-2.5,0.8-4.6,1.8-6.5,3.2c-1.4-1.2-3.1-2.2-5.2-3.1c-2.1-0.9-4.9-1.3-8.2-1.3c-1.7,0-3.5,0.1-5.3,0.2s-3.5,0.4-5.2,0.6
				c-1.7,0.3-3.3,0.6-4.8,0.9s-2.8,0.6-4,0.9v45.3h13.3V32.9c0.8-0.1,1.7-0.2,2.6-0.3c0.9-0.1,1.8-0.1,2.6-0.1
				c2.7,0,4.6,0.9,5.7,2.7c1.1,1.8,1.6,4.8,1.6,9.1v24.8H174.8z M222.3,69.1h13.3V22.2h-13.3L222.3,69.1L222.3,69.1z M234.4,3
				c-1.6-1.4-3.4-2.1-5.6-2.1c-2.1,0-4,0.7-5.6,2.1s-2.4,3.3-2.4,5.7c0,2.4,0.8,4.4,2.4,5.7c1.6,1.4,3.4,2.1,5.6,2.1
				c2.1,0,4-0.7,5.6-2.1s2.4-3.3,2.4-5.7C236.8,6.3,236,4.4,234.4,3L234.4,3z M244.5,69.1h13.3V32.9c0.8-0.1,1.8-0.2,2.9-0.3
				c1.1-0.1,2.1-0.1,3-0.1c3.1,0,5.2,0.9,6.3,2.7c1.1,1.8,1.7,4.8,1.7,9.1v24.9H285V42.7c0-3.2-0.3-6.1-1-8.7s-1.8-4.9-3.3-6.8
				s-3.6-3.4-6.3-4.4c-2.6-1-6-1.6-9.9-1.6s-7.7,0.3-11.2,0.8c-3.6,0.6-6.5,1.2-8.7,1.8L244.5,69.1L244.5,69.1z M333.4,22.3h-13.3
				v36.2c-0.8,0.1-1.8,0.2-2.9,0.3c-1.1,0.1-2.1,0.1-3,0.1c-3.1,0-5.2-0.9-6.3-2.9c-1.1-1.9-1.7-5-1.7-9.3V22.2h-13.3v26.1
				c0,3.2,0.3,6.1,1,8.8c0.7,2.7,1.8,5,3.3,6.9s3.6,3.4,6.3,4.5c2.6,1.1,6,1.6,9.9,1.6s7.7-0.3,11.2-0.8c3.6-0.6,6.5-1.2,8.7-1.8
				L333.4,22.3L333.4,22.3z M341.8,50c0,3,0.3,5.8,0.8,8.3c0.6,2.5,1.6,4.6,3,6.4s3.3,3.1,5.7,4.1c2.4,1,5.4,1.5,9,1.5
				c2.9,0,5.3-0.2,7.2-0.7c2-0.5,3.7-1,5.3-1.7l-1.9-10.3c-1.2,0.5-2.6,0.8-4.1,1.1c-1.5,0.3-3,0.4-4.4,0.4c-3,0-4.9-0.8-5.9-2.5
				s-1.5-3.9-1.5-6.7V33.4h15.9v-11H355V8.6l-13.3,2.1L341.8,50L341.8,50z M376.6,55.7c1,3,2.5,5.5,4.5,7.7s4.6,3.9,7.8,5.1
				c3.1,1.2,6.8,1.9,11,1.9c1.7,0,3.3-0.1,5-0.3c1.7-0.2,3.2-0.4,4.7-0.7c1.5-0.3,2.8-0.6,4-0.9c1.2-0.4,2.1-0.7,2.8-1.1l-1.8-10.8
				c-1.5,0.7-3.4,1.2-5.7,1.6c-2.3,0.4-4.7,0.7-7.2,0.7c-3.8,0-6.8-0.8-9.1-2.4c-2.3-1.6-3.5-3.8-3.8-6.5h30.1
				c0.1-0.7,0.1-1.5,0.2-2.5c0.1-0.9,0.1-1.8,0.1-2.5c0-7.9-1.9-13.9-5.8-17.9c-3.9-4.1-9.1-6.1-15.8-6.1c-2.9,0-5.6,0.5-8.3,1.6
				c-2.7,1.1-5.1,2.6-7.2,4.7s-3.8,4.7-5,7.8c-1.3,3.1-1.9,6.8-1.9,10.9C375.1,49.5,375.6,52.7,376.6,55.7L376.6,55.7z M388.8,41
				c0.2-1.1,0.5-2.2,0.8-3.3c0.4-1.1,0.9-2.1,1.7-2.9c0.7-0.8,1.6-1.5,2.7-2s2.3-0.8,3.8-0.8s2.8,0.3,3.9,0.8c1,0.5,1.9,1.2,2.6,2
				s1.2,1.8,1.5,2.9s0.5,2.2,0.6,3.3H388.8z M437.2,56c-1.7-1.4-3.6-2.1-5.7-2.1s-4.1,0.7-5.7,2.1c-1.7,1.4-2.5,3.4-2.5,6.1
				s0.8,4.7,2.5,6.1s3.6,2.1,5.7,2.1s4.1-0.7,5.7-2.1c1.7-1.4,2.5-3.4,2.5-6.1C439.7,59.4,438.9,57.4,437.2,56L437.2,56z
				 M443.3,55.5c0.9,3,2.4,5.6,4.4,7.8c2,2.2,4.5,3.9,7.6,5.2c3.1,1.3,6.8,1.9,11,1.9c2.8,0,5.3-0.2,7.7-0.7c2.3-0.5,4.2-1,5.8-1.7
				l-1.9-10.9c-1.5,0.7-3.2,1.1-5.1,1.4c-1.8,0.3-3.6,0.4-5.2,0.4c-4.5,0-7.7-1.2-9.5-3.5s-2.7-5.6-2.7-9.8c0-4,1-7.2,2.9-9.6
				s4.9-3.7,8.8-3.7c1.8,0,3.5,0.2,5,0.5c1.5,0.4,2.9,0.8,4.1,1.2l2.8-10.6c-2-0.8-4-1.5-6.1-1.9s-4.4-0.7-6.9-0.7
				c-3.8,0-7.2,0.7-10.2,2s-5.5,3.1-7.6,5.3c-2.1,2.2-3.7,4.8-4.8,7.8c-1.1,3-1.6,6.2-1.6,9.6C442,49.2,442.4,52.5,443.3,55.5
				L443.3,55.5z M526.9,35.6c-1.1-3-2.7-5.6-4.7-7.8c-2-2.1-4.4-3.8-7.3-5c-2.8-1.2-5.9-1.8-9.3-1.8c-3.3,0-6.4,0.6-9.2,1.8
				c-2.8,1.2-5.3,2.9-7.3,5s-3.7,4.7-4.8,7.8c-1.2,3-1.7,6.4-1.7,10.1s0.6,7.1,1.7,10.1c1.1,3.1,2.7,5.7,4.7,7.8
				c2,2.2,4.4,3.8,7.3,5c2.8,1.2,6,1.8,9.4,1.8c3.5,0,6.7-0.6,9.5-1.8c2.8-1.2,5.2-2.9,7.3-5c2-2.2,3.6-4.8,4.6-7.8
				c1.1-3.1,1.6-6.4,1.6-10.1C528.5,41.9,528,38.6,526.9,35.6L526.9,35.6z M512.6,55.4c-1.6,2.4-4,3.6-7,3.6s-5.4-1.2-7-3.6
				c-1.7-2.4-2.5-5.7-2.5-9.8c0-4.1,0.8-7.3,2.5-9.7c1.7-2.3,4-3.5,7-3.5s5.4,1.2,7,3.5s2.5,5.6,2.5,9.7
				C515,49.7,514.2,53,512.6,55.4L512.6,55.4z M561,69.1h13.3V43.5c0-1.7-0.1-3.3-0.2-4.9c-0.1-1.5-0.4-3-0.8-4.3
				c0.8-0.5,1.9-1,3.2-1.3c1.3-0.4,2.3-0.5,3-0.5c2.7,0,4.6,0.9,5.7,2.7c1.1,1.8,1.6,4.8,1.6,9.1v24.9h13.3V42.7
				c0-3.2-0.3-6.1-0.8-8.7s-1.5-4.9-2.9-6.8s-3.3-3.4-5.7-4.4s-5.5-1.6-9.2-1.6c-2.1,0-4.4,0.4-6.8,1.2c-2.5,0.8-4.7,1.8-6.5,3.2
				c-1.4-1.2-3.1-2.2-5.2-3.1c-2.1-0.9-4.9-1.3-8.2-1.3c-1.7,0-3.5,0.1-5.3,0.2s-3.5,0.4-5.2,0.6c-1.7,0.3-3.3,0.6-4.8,0.9
				s-2.8,0.6-4,0.9v45.3h13.3V32.9c0.8-0.1,1.7-0.2,2.6-0.3c0.9-0.1,1.8-0.1,2.6-0.1c2.7,0,4.6,0.9,5.7,2.7c1.1,1.8,1.7,4.8,1.7,9.1
				v24.8H561z"/>
		</g>
	</g>
</g>
</svg>
