<?xml version="1.0" encoding="utf-8"?>
<!-- Generator: Adobe Illustrator 24.3.0, SVG Export Plug-In . SVG Version: 6.00 Build 0)  -->
<svg version="1.1" id="Layer_1" xmlns="http://www.w3.org/2000/svg" xmlns:xlink="http://www.w3.org/1999/xlink" x="0px" y="0px"
	 viewBox="0 0 360 44.7" style="enable-background:new 0 0 360 44.7;" xml:space="preserve">
<style type="text/css">
	.st0{display:none;}
	.st1{display:inline;fill:#001641;}
	.st2{fill:#FFFFFF;}
</style>
<g id="Background" class="st0">
	<rect x="-216" y="-283.7" class="st1" width="792" height="612"/>
</g>
<g id="ARTWORK">
	<g>
		<g>
			<path class="st2" d="M308.9,16.1C324.5,9.9,334.3,6.3,360,0c-14,0.9-44.9,3-66.2,7.2C293.8,7.2,308.6,15.9,308.9,16.1"/>
			<path class="st2" d="M260.4,36.8h20.4c4-6.1,8.1-9.1,12.7-12.4c-3.5-1.4-7.1-2.7-10.7-4C269.8,26.2,262.5,33.9,260.4,36.8"/>
			<path class="st2" d="M264.4,14.5c-18.2,6.5-28.3,13.6-35.1,22.3h22.5c2.2-3.1,10.6-11.9,26.3-18C273.8,17.3,266.2,15,264.4,14.5"
				/>
			<path class="st2" d="M273.8,0.8H224c50.2,9.1,74.4,20.8,113.4,37.3C334,35.6,280.3,4,273.8,0.8"/>
		</g>
		<g>
			<path class="st2" d="M165.1,30.5c-4.2,0-7.5-3.4-7.5-7.5s3.4-7.5,7.5-7.5s7.5,3.4,7.5,7.5S169.3,30.5,165.1,30.5 M165.1,8.3
				c-10,0-16.6,5.9-16.6,14.7c0,8.4,7.2,14.7,16.6,14.7c9.8,0,16.7-6.1,16.7-14.7C181.8,14.2,175.1,8.3,165.1,8.3"/>
			<path class="st2" d="M131.6,8.7h-6v7.6h4.1c3.3,0,6,2.9,6,6.4c0,4.3-3.5,6.4-5.8,6.5h-7.4V0.8h-9.2v36h16.6
				c7.3,0,15.2-5.5,15.2-13.8C144.9,14.1,138.1,8.7,131.6,8.7"/>
			<path class="st2" d="M48.6,22.8c0-3.6,2.9-6.5,6.4-6.5h7.3l-5.9,9.8h8.8l5.9-9.2V8.8H53.5c-7.7,0-13.9,6.3-13.9,14
				s6.2,14,13.9,14h17.6v-7.6H55C51.5,29.2,48.6,26.3,48.6,22.8"/>
			<path class="st2" d="M22.5,0.8H0v36h8.9V8.7h11.6c3.2,0,6.6,1.7,6.6,6.4c0,3.6-2.5,6.4-6.1,6.4h-8.9V29h6.3
				c5.4,0.2,7.7,2.7,7.8,8v7.7h9.4V34.4c0-5.4-3.8-8.2-7.5-9.1c5.8-2,8.7-6.5,8.7-12C36.5,5.6,29.2,0.8,22.5,0.8"/>
			<path class="st2" d="M206.6,21.8c6.2-1.9,8-5.3,8-12.1v-1h-9.1v1.5c0,4.5-1.9,7.8-6.2,7.8H195V0.8h-9.2v36h9.2V25.6h3.3
				c4.6,0,7.4,2.6,7.4,6.8v4.4h9.2v-4.1C214.9,27.3,212.5,23.5,206.6,21.8"/>
			<path class="st2" d="M84.5,22.8c0-3.6,2.9-6.5,6.4-6.5h7.3l-5.9,9.8h8.8l5.9-9.2V8.8H89.4c-7.7,0-13.9,6.3-13.9,14
				s6.2,14,13.9,14H107v-7.6H90.9C87.4,29.2,84.5,26.3,84.5,22.8"/>
		</g>
	</g>
</g>
<g id="CALLOUTS" class="st0">
</g>
<g id="Safe_Space" class="st0">
</g>
</svg>
