<?xml version="1.0" encoding="utf-8"?>
<!-- Generator: Adobe Illustrator 24.3.0, SVG Export Plug-In . SVG Version: 6.00 Build 0)  -->
<svg version="1.1" id="Now_Logo" xmlns="http://www.w3.org/2000/svg" xmlns:xlink="http://www.w3.org/1999/xlink" x="0px" y="0px"
	 viewBox="0 0 369.2 116.1" style="enable-background:new 0 0 369.2 116.1;" xml:space="preserve">
<style type="text/css">
	.st0{fill:#FFFFFF;}
</style>
<path class="st0" d="M113,20.9c0.2-1.3,0.3-2.7,0.4-4c0-9.7-6.3-14.9-15.3-14.9c-7.7,0-14.6,4.6-16.7,15.2l-7.2,36.7L47.5,11.9
	C42.8,4.5,38,2.2,32,2.2c-7.4,0-14.2,3.8-16.2,13.5L0.5,90.9c-0.3,2-0.5,3.9-0.5,5.9c0,10.4,6.5,16,15.3,16
	c7.2,0,15.3-4.7,17.3-14.8l7.3-36.2l24.7,40.1c3.6,5.9,8.3,10.8,16.2,10.8c9.2,0,14.8-5.2,16.7-14.2l5.6-26.8h0.4
	c4.7,25.6,25.7,44.3,56,44.3c29.3,0,52.6-19.8,58.1-44.3h0.4l5.2,25.6c2,9.5,7.4,15.5,16.9,15.5c8.5,0,13.5-4.3,18-12.1L281.5,61
	l9.7,36.7c2.9,10.8,8.6,15.1,17.1,15.1c7.7,0,13.5-4.5,17.6-12.1l40.5-73.6c1.7-3,2.6-6.3,2.7-9.7c0-8.6-6.7-15.3-16.4-15.3
	c-7.9,0-14.4,4.7-18.7,13.1l-19.6,38.5l-9.5-38c-2.2-8.3-6.8-13.7-16.2-13.7c-6.1,0-12.1,1.8-17.6,12.2l-20.5,39.4l-6.8-37.4
	c-1.8-9.9-8.6-14.2-16.9-14.2c-9.5,0-16.7,6.8-16.7,16.7c0,1.4,0.1,2.9,0.4,4.3l0.9,5.8h-0.4c-9.2-17.6-26.6-29-49.3-29
	c-22.5,0-41,12.2-49.5,29h-0.4L113,20.9L113,20.9z M160.9,84.4c-14.4,0-25.7-11.9-25.7-26.3c0-15.1,11.3-26.3,25.7-26.3
	c14.3,0,25.9,11.6,25.9,25.9c0,0.1,0,0.3,0,0.4c0.2,14.3-11.2,26.1-25.5,26.3C161.2,84.4,161.1,84.4,160.9,84.4z"/>
</svg>
