<?xml version="1.0" encoding="utf-8"?>
<!-- Generator: Adobe Illustrator 24.3.0, SVG Export Plug-In . SVG Version: 6.00 Build 0)  -->
<svg version="1.1" id="svg2" xmlns:svg="http://www.w3.org/2000/svg"
	 xmlns="http://www.w3.org/2000/svg" xmlns:xlink="http://www.w3.org/1999/xlink" x="0px" y="0px" viewBox="0 0 116 65.4"
	 style="enable-background:new 0 0 116 65.4;" xml:space="preserve">
<style type="text/css">
	.st0{display:none;}
	.st1{display:inline;fill-rule:evenodd;clip-rule:evenodd;fill:#FF592B;}
	.st2{fill-rule:evenodd;clip-rule:evenodd;fill:#FFFFFF;}
</style>
<g id="g8" class="st0">
	<path id="path10" class="st1" d="M-38.4-44.5h187.1v153.8H-38.4V-44.5z"/>
</g>
<g id="g12" transform="translate(122.3733,44.5273)">
	<path id="path14" class="st2" d="M-6.4,19.9V-0.6H-17l0,11.2c0,3-2.4,5.4-5.4,5.4c-3,0-5.4-2.4-5.4-5.4l0-55.1h-10.6v64.4H-6.4z"/>
</g>
<g id="g16" transform="translate(42.92967,44.5273)">
	<path id="path18" class="st2" d="M-6.4,8.6c0,6.4-4.2,12.2-16,12.2c-11.9,0-16-7.5-16-12.2v-9.3h10.6v11.2c0,3,2.4,5.4,5.5,5.4
		c3,0,5.4-2.5,5.4-5.5l0-55h10.6V8.6z"/>
</g>
<g id="g20" transform="translate(82.96977,44.5273)">
	<path id="path22" class="st2" d="M-6.7-23.1v-11c0-7.1-6.5-10.5-10.6-10.5h-21.1v64.4h21.1c7.9,0,10.6-5.1,10.6-8.4V-7.8
		c0-2.7-2.8-6.3-7-6.3C-9.5-14.2-6.7-19.9-6.7-23.1z M-21.5,14.6l-6.4,0v-26h6.4c4.2,0,4.2,3,4.2,13.1
		C-17.3,11.8-17.3,14.6-21.5,14.6z M-22.1-16.8l-5.8,0v-21.6h5.8c3.8,0,4.8,0.8,4.8,10.9C-17.3-17.5-18.3-16.8-22.1-16.8z"/>
</g>
<g id="g24" transform="translate(42.09567,69.1572)">
	<path id="path26" class="st2" d="M-32.3-44.5c-3.4,0-6.1,2.7-6.1,6.1c0,3.4,2.7,6.1,6.1,6.1c3.4,0,6.1-2.7,6.1-6.1
		C-26.2-41.8-28.9-44.5-32.3-44.5z"/>
</g>
<g id="g28" transform="translate(38.43747,44.5273)">
	<path id="path30" class="st2" d="M-38.4-44.5l9.8,22.3l9.8-22.3H-38.4z"/>
</g>
</svg>
