<?xml version="1.0" encoding="utf-8"?>
<!-- Generator: Adobe Illustrator 24.3.0, SVG Export Plug-In . SVG Version: 6.00 Build 0)  -->
<svg version="1.1" id="Layer_1" xmlns="http://www.w3.org/2000/svg" xmlns:xlink="http://www.w3.org/1999/xlink" x="0px" y="0px"
	 viewBox="0 0 659.3 227.7" style="enable-background:new 0 0 659.3 227.7;" xml:space="preserve">
<style type="text/css">
	.st0{fill:#FFFFFF;}
</style>
<g>
	<path class="st0" d="M638.6,107.4l-23.2-7.7c-5.3-1.7-6.6-2.7-6.6-8.3v-2.1c0-7.5,2.8-7.5,9.9-7.5c14.8,0,31.9,0.4,31.9,0.4
		c1.8,0,2.4-0.6,2.4-2.4V63.5c0-1.8-0.6-2.4-2.4-2.4c0,0-18.7-0.5-35.1-0.5c-18.6,0-29.4,8-29.4,25.4v8.1
		c0,18.8,10.6,21.9,20.7,25.1l23.1,7.5c5.2,1.7,6.6,3.2,6.6,8.7v2.4c0,7.5-2.7,8-9.7,8c-16,0-37.4-0.5-37.4-0.5
		c-1.8,0-2.4,0.6-2.4,2.4v16.4c0,1.8,0.6,2.4,2.4,2.4c0,0,21.8,0.5,40.6,0.5c18.6,0,29.4-8.7,29.4-26.1v-8.3
		C659.3,113.7,648.5,110.6,638.6,107.4z"/>
	<path class="st0" d="M545.1,61.4h-48.4c-1.8,0-2.4,0.6-2.4,2.4v100c0,1.8,0.6,2.4,2.4,2.4h48.4c18.6,0,29.4-10.4,29.4-27.8V89.2
		C574.5,71.8,563.7,61.4,545.1,61.4z M551.9,134.6c0,7.5-2.8,10.5-9.9,10.5h-25V82.6h25c7,0,9.9,3,9.9,10.5V134.6z"/>
	<path class="st0" d="M479.7,61.4h-64.3c-1.8,0-2.4,0.6-2.4,2.4v100c0,1.8,0.6,2.4,2.4,2.4h17.8c1.8,0,2.4-0.6,2.4-2.4v-37.4h38.5
		c1.8,0,2.4-0.6,2.4-2.4v-16.4c0-1.8-0.6-2.4-2.4-2.4h-38.5V82.6h44.1c1.8,0,2.4-0.6,2.4-2.4V63.8C482.1,62,481.5,61.4,479.7,61.4z"
		/>
	<path class="st0" d="M368.7,61.4h-48.4c-1.8,0-2.4,0.6-2.4,2.4v100c0,1.8,0.6,2.4,2.4,2.4h48.4c18.6,0,29.4-10.4,29.4-27.8V89.2
		C398.1,71.8,387.3,61.4,368.7,61.4z M375.5,134.6c0,7.5-2.8,10.5-9.9,10.5h-25V82.6h25c7,0,9.9,3,9.9,10.5V134.6z"/>
	<path class="st0" d="M316.1,0H132.9c-1.9,0-3,0.8-3.9,2.3L0.3,225.3c-0.7,1.2-0.1,2.5,1.5,2.5H185c1.9,0,3-0.8,3.9-2.3l128.7-223
		C318.3,1.2,317.7,0,316.1,0z M211.4,145.5c0,1-1.1,1.6-1.9,1.1l-41.9-24.2l24.2,41.9c0.5,0.8-0.1,1.9-1.1,1.9h-63.4
		c-1,0-1.6-1.1-1.1-1.9l24.2-41.9l-41.9,24.2c-0.8,0.5-1.9-0.1-1.9-1.1V82.2c0-1,1.1-1.6,1.9-1.1l41.9,24.2l-24.2-41.9
		c-0.5-0.8,0.1-1.9,1.1-1.9h63.4c1,0,1.6,1.1,1.1,1.9l-24.2,41.9l41.9-24.2c0.8-0.5,1.9,0.1,1.9,1.1V145.5z"/>
</g>
</svg>
