<?xml version="1.0" encoding="utf-8"?>
<!-- Generator: Adobe Illustrator 24.3.0, SVG Export Plug-In . SVG Version: 6.00 Build 0)  -->
<svg version="1.1" id="Layer_1" xmlns="http://www.w3.org/2000/svg" xmlns:xlink="http://www.w3.org/1999/xlink" x="0px" y="0px"
	 viewBox="0 0 110 32" style="enable-background:new 0 0 110 32;" xml:space="preserve">
<style type="text/css">
	.st0{fill-rule:evenodd;clip-rule:evenodd;fill:#FFFFFF;}
</style>
<path class="st0" d="M76,23.4c-1.7,1.8-3.8,2.7-6.3,2.7c-2.5,0-4.6-0.9-6.3-2.7C61.9,21.7,61,19,61,16c0-2.9,0.9-5.6,2.5-7.3
	C65.1,6.9,67.2,6,69.7,6c2.5,0,4.6,0.9,6.3,2.7c1.6,1.7,2.5,4.4,2.5,7.3C78.5,19,77.6,21.7,76,23.4z M53.9,16c0,0.1,0,0.3,0,0.4
	c-2.5-2.3-6.2-3.2-8.4-3.6c-4.1-0.9-7.3-1.7-7.3-4.6c0-2.1,1.9-3.6,5.4-3.3c3.3,0.2,4.6,2.2,5,4.2c0.1,0.3,0.2,0.5,0.6,0.5l5.9,0.1
	c0,0,0.1,0,0.1,0C54.3,11.5,53.9,13.7,53.9,16z M43.9,26.8c-2.8,0-6-1-6.7-4.9c-0.1-0.4-0.2-0.5-0.5-0.5L31,21.2v-10
	c0.7,2.9,3.2,5,8.6,6.2c3.6,0.9,9.8,1.4,9.8,5.1C49.4,25,47.5,26.8,43.9,26.8z M15.6,26c-4.6,0-8.8-3.6-8.8-10.1
	c0-5.1,3.1-10,8.8-10c2.5,0,8.7,0.8,8.7,10C24.3,25.1,17.8,26,15.6,26L15.6,26z M85.4,13.5c1.3,1.7,3.7,3,7.5,3.9
	c3.6,0.9,9.8,1.4,9.8,5.1c0,2.6-1.9,4.4-5.5,4.3c-2.8,0-6-1-6.7-4.9c-0.1-0.4-0.2-0.5-0.5-0.5l-5.3-0.1c0.6-1.6,0.8-3.4,0.8-5.3
	C85.6,15.1,85.5,14.3,85.4,13.5L85.4,13.5z M96.8,31.9c6.3,0,13.7-2.3,13.1-10c-0.6-6.8-7.7-8.5-11.2-9.2c-4.1-0.9-7.3-1.7-7.3-4.6
	c0-2.1,1.9-3.6,5.4-3.3c3.3,0.2,4.6,2.2,5,4.2c0.1,0.3,0.2,0.5,0.6,0.5l5.9,0.1c0.4,0,0.6-0.2,0.5-0.5c-1.1-7-7-9-12.4-9
	c-5.4,0-11.9,1.5-12.4,8.2c0,0.3,0,0.5,0,0.8c-0.9-1.8-2.1-3.4-3.7-4.9C77.4,1.5,73.7,0,69.7,0h-0.1c-1.9,0-3.8,0.4-5.6,1.1
	c-1.8,0.7-3.5,1.8-4.9,3.1c-1.5,1.4-2.7,2.9-3.6,4.6C54.3,1.9,48.5,0,43.2,0c-5,0-10.9,1.3-12.1,6.7V1.3c0-0.3-0.2-0.5-0.5-0.5H25
	c-0.3,0-0.5,0.2-0.5,0.5v1.5c0,0.2-0.2,0.3-0.4,0.2c-2-1.4-4.9-3-8.4-3c-2,0-3.8,0.3-5.6,1C8.4,1.7,6.7,2.8,5.2,4.1
	c-1.7,1.6-3,3.4-3.9,5.3S0,13.6,0,16c0,2.2,0.4,4.3,1.2,6.1c0.8,1.9,1.9,3.6,3.5,5.1c1.5,1.5,3.2,2.7,5.1,3.5c1.8,0.8,3.9,1.2,6,1.2
	c3.7,0,6.5-1.6,8.3-3c0.2-0.2,0.4-0.1,0.4,0.2v1.5c0,0.3,0.2,0.5,0.5,0.5h5.5c0.3,0,0.5-0.2,0.5-0.5v-5.1c2.6,6.1,9.2,6.5,12.5,6.5
	c5.4,0,11.7-1.8,12.9-7.1c0.6,0.9,1.3,1.7,2,2.5c3,3,6.8,4.6,11.2,4.6h0.2c2.1,0,4.1-0.4,6-1.2c1.9-0.8,3.6-2,5.1-3.4
	c1.1-1.1,2-2.3,2.7-3.6C85.7,31.5,93.3,31.9,96.8,31.9L96.8,31.9z"/>
</svg>
