<?xml version="1.0" encoding="utf-8"?>
<!-- Generator: Adobe Illustrator 24.3.0, SVG Export Plug-In . SVG Version: 6.00 Build 0)  -->
<svg version="1.1" id="HEEL" xmlns="http://www.w3.org/2000/svg" xmlns:xlink="http://www.w3.org/1999/xlink" x="0px" y="0px"
	 viewBox="0 0 382 110" style="enable-background:new 0 0 382 110;" xml:space="preserve">
<style type="text/css">
	.st0{fill:#FFFFFF;}
	.st1{fill-rule:evenodd;clip-rule:evenodd;fill:#FFFFFF;}
</style>
<g>
	<line class="st0" x1="6.2" y1="103.3" x2="6.1" y2="103.3"/>
</g>
<path class="st1" d="M95.5,25.3l6.5-1.1L82.4,25l8.1-11l-9.8,9.4L78.3,9.5l0.2,14.1l-11-7.3l9.5,9.1l-18.9,2.6l6.4,0l-4.2,77.5
	l22.1-1.9l0.1-13.9l7.6-0.7l2.4,13.7l21.8-1.9L95.5,25.3z M103.9,98.7c-1.5,0.2-3.7-0.8-5.1-1.1c-0.8-0.2-1.8,0.1-2.2-0.5
	c-0.1-0.4-0.2-0.9-0.2-1.3c-0.5-0.4-0.9-0.7-1.4-1.1c-0.6-0.9-0.3-1.8-0.8-2.7c-1.1-1.9-2.6-3.8-3.8-5.7c-0.9-1.5-1-3-2.1-4.3
	c-0.5-0.7-1.5-1.1-2.1-1.8c-1.2-1.5-2.6-5.3-4.9-5.4c-1.6,3.1-3.2,6.5-4.2,10.1c0,0.9,0,1.8,0,2.6c-0.2,0.7-0.8,1.5-1,2.4
	c-0.2,0.8-0.4,3.5-0.2,4.3c0.1,0.3-0.2,0.7-0.1,1.5c0.1,0.7,0.3,2.3-0.3,2.7c-0.5,0.2-1.1,0.4-1.6,0.7c-0.3,0.2-2,2.1-2.3,2.5
	c-1.7,0.1-3.1-0.4-3.2-0.7c0-0.3-0.4-1.2,0.4-1.8c0.3-0.2,1.2-1.3,1.1-1.7c-0.1-0.3,0.6-1,0.7-1.6c0.2-1,0.1-1.5,0.3-2.6
	c0.1-1.9,0.2-3.7,0.3-5.6c0.4-2,1.3-3.7,1.6-5.7c-0.2-1,0.3-9.8,0.7-11.9c0.1-0.6,0.4-1.4,0.5-2.1c0.2-0.5,0.7-1.5,0.9-2
	c0.1-0.5-0.3-0.7-0.1-1.3c0.3-0.8,1-1.6,1.3-2.4c0.5-1.3,0.4-2.3,0.9-3.6c0.5-1.1,1.3-2.3,1.8-3.3c0.2-0.9,1.4-3.5,1.6-4.1
	c0.3-1.3-0.4-2.8-0.1-4.3c0.5-2.7,0.3-6-0.5-8.3c-0.5-1.6,0-4.4,0.3-5.4c0,0,0,0,0,0c0,0,0,0,0-0.1c0-0.1,0-0.1,0.1-0.2
	c0-0.1-0.1-0.3-0.1-0.5c0,0,0,0,0,0c0-0.1,0-0.1,0-0.2c0,0,0,0,0,0c-0.1-0.1-0.2-0.2-0.3-0.4c-0.1-0.1-0.1-0.2-0.1-0.3
	c0,0,0-0.1,0-0.1c0,0,0-0.1-0.1-0.1c0,0-0.1-0.1-0.1-0.1c0-0.1,0-0.2,0-0.3c0-0.1,0-0.1,0-0.2c0-0.1,0-0.2,0-0.3c0-0.1,0-0.2,0-0.3
	c0-0.1,0.1-0.2,0.2-0.2c0,0,0.1,0,0.1,0c0.1,0,0.1,0,0.2-0.1c0,0,0,0,0-0.1c0-0.1,0-0.1,0.1-0.2c0,0,0-0.1,0.1-0.1
	c0-0.1,0.1-0.1,0.2-0.1c0.1,0,0.1,0,0.2,0c0.1,0,0.1,0,0.2,0c0,0,0.1,0,0.1,0c0.1,0,0.1-0.1,0.2-0.1c0,0,0,0,0-0.1
	c0-0.1,0-0.1,0.1-0.2c0,0,0.1-0.1,0.1-0.1c0.1-0.1,0.1-0.1,0.2,0c0.1,0,0.2,0.1,0.3,0.1c0.1,0,0.2,0.1,0.3,0.1c0.1,0,0.1,0,0.2,0
	c0.1-0.1,0.2-0.1,0.2-0.1c0.1,0,0.2,0,0.3,0.1c0,0.1,0.1,0.1,0.1,0.2c0,0.1,0,0.2,0,0.3c0,0.1,0,0.2,0,0.3c0,0.1,0,0.2,0,0.2
	c0,0.2,0,0.3-0.1,0.4c0,0.1,0,0.1,0,0.2c0,0,0,0.1,0,0.1c0.1,0.1,0.1,0.1,0.2,0.2c0,0,0,0,0,0c0.1,0,0.1,0.1,0.1,0.2
	c0,0.1,0,0.2,0,0.3c0,0,0,0,0,0.1c0,0.1-0.1,0.2-0.1,0.2c0,0-0.1,0.1-0.1,0.1c-0.2,0.1-0.4,0.2-0.6,0.3c0,0,0,0,0,0c0,0,0,0.1,0,0.2
	c0,0,0,0,0,0c0,0.2,0,0.4,0,0.7c0,0.1,0,0.1,0,0.2c0,0.1,0,0.2,0,0.3c0.1,1.2,0.5,2.7,0.8,3.7c0.2,1-0.3,2.7,0.1,4
	c0.4,1.2,0.7,2.5,1,3.6c0,0.8,0.1,1.7,0.1,2.5c0.1,0.2,0.5,0.9,0.6,1.1c0.5,1,0.1,1.3,1.5,1.4c0-0.1-0.8-2.3-0.4-3.3
	c0.8-1.9-0.4-2.6,1.7-3.4c1.2-1,3.8-0.3,4.3,0.8c0.5,0.6,0.6,1.4,0.5,2c0.1,0.7-0.2,2.6-0.5,2.8c-0.4,0.6-0.7,1.1-1.1,1.7
	c-0.3,0.5-1,0.8-1.2,1.4c-1,2.5,1.7,4,1.2,6.2c-0.1,0.3-0.6,1.6-0.9,2c-0.4,0.4-0.8,0.7-1.2,1.1c-0.6,1.1-0.3,2.3-0.8,3.6
	c-0.2,0.6-0.9,1.7-0.5,2.7c0.2,0.4,0.7,0.8,0.9,1.1c0.1,0.6,0.2,1.2,0.3,1.7c0.6,1.3,1.8,2.5,2.4,3.8c1.1,2.4,1.3,5,2.6,7.2
	c0.7,1.2,2.2,2.2,3,3.3c0.9,1.3,1,2.8,1.9,4c1.4,1.9,2,4.7,4.1,5.9C107.1,97.4,104.3,98.7,103.9,98.7z"/>
<path class="st0" d="M159,42.9l-19.8,1.7l-0.5-5.7c-0.2-2.7-0.6-4.3-1.2-5c-0.6-0.7-1.4-1-2.6-0.9c-1.3,0.1-2.2,0.7-2.8,1.7
	c-0.6,1-0.8,2.5-0.6,4.5c0.2,2.6,0.8,4.5,1.6,5.7c0.8,1.2,3,2.6,6.4,4.2c10,4.4,16.3,8.2,19.1,11.4c2.8,3.2,4.5,8.5,5.1,16
	c0.5,5.5,0.1,9.5-1,12.2c-1.1,2.7-3.6,5.1-7.4,7.2c-3.8,2.1-8.3,3.4-13.5,3.8c-5.7,0.5-10.7-0.1-14.9-1.7c-4.2-1.7-7.1-4-8.6-7
	c-1.5-3-2.5-7.4-3-13.1l-0.4-5l19.8-1.7l0.8,9.3c0.3,2.9,0.7,4.7,1.3,5.5c0.6,0.8,1.7,1.1,3.1,1c1.4-0.1,2.4-0.7,3-1.8
	c0.6-1.1,0.8-2.7,0.6-4.7c-0.4-4.5-1.3-7.4-2.8-8.7c-1.5-1.3-5-3.3-10.6-6.1c-5.6-2.8-9.3-4.9-11.2-6.2c-1.9-1.3-3.5-3.3-4.8-5.8
	c-1.4-2.5-2.2-5.8-2.6-9.9c-0.5-5.9-0.1-10.2,1.3-13.1c1.4-2.9,3.8-5.2,7.2-7c3.5-1.8,7.7-3,12.8-3.4c5.5-0.5,10.3-0.1,14.4,1.3
	c4.1,1.3,6.8,3.2,8.3,5.6c1.5,2.4,2.5,6.7,3,12.8L159,42.9z"/>
<path class="st0" d="M185.2,17.2l6.7,76.6l-21.4,1.9l-6.7-76.6L185.2,17.2z"/>
<path class="st0" d="M246.9,43l-21.6,1.9l-0.8-8.6c-0.3-3.9-0.8-6.3-1.3-7.2c-0.5-0.9-1.6-1.3-3.2-1.2c-1.8,0.2-2.9,0.8-3.2,2
	c-0.4,1.2-0.4,3.8-0.1,7.6l2.7,31.1c0.3,3.7,0.8,6.1,1.4,7.2c0.6,1.1,1.7,1.6,3.4,1.4c1.6-0.1,2.6-0.8,3-2c0.4-1.2,0.4-3.9,0-8.1
	l-0.9-9.9l21.6-1.9l0.5,5.5c0.7,7.9,0.6,13.6-0.3,17c-0.9,3.4-3.4,6.6-7.3,9.4c-3.9,2.9-8.9,4.6-15,5.1c-6.3,0.6-11.6,0-15.9-1.8
	c-4.3-1.8-7.3-4.4-8.9-8.1c-1.7-3.6-2.8-9.2-3.5-16.7l-2-22.4c-0.5-5.5-0.6-9.7-0.5-12.5c0.2-2.8,1.2-5.6,3-8.3
	c1.8-2.7,4.5-5,7.9-6.8c3.5-1.8,7.6-2.9,12.2-3.3c6.4-0.6,11.7,0.1,16,2c4.3,1.9,7.3,4.5,8.9,7.8c1.6,3.3,2.7,8.5,3.3,15.6L246.9,43
	z"/>
<g>
	<path class="st0" d="M268.9,9.8l35.4-3.1l1.3,15.4l-14.5,1.3l1.3,14.6l12.9-1.1l1.3,14.6l-12.9,1.1l2.8,32.3l-20.9,1.8L268.9,9.8z"
		/>
	<path class="st0" d="M330.2,4.4l6.7,76.9L316,83.1l-6.7-76.9L330.2,4.4z"/>
	<path class="st0" d="M380.6,0l1.3,15.4l-12.4,1.1L375,78l-20.9,1.8l-5.4-61.5l-12.3,1.1L335,4L380.6,0z"/>
</g>
<rect x="252.6" y="41.9" transform="matrix(0.9962 -8.710661e-02 8.710661e-02 0.9962 -3.2056 22.8027)" class="st0" width="14.1" height="12.5"/>
<path class="st0" d="M0,33.4l21.3-1.9c6.7-0.6,13-0.6,16.5,0c3.6,0.7,6.5,2.4,8.9,5.2c2.4,2.8,3.9,7.5,4.5,14.1
	c0.4,4.5-0.1,7.7-1.4,9.6c-1.3,1.9-4.2,3.5-8.5,4.8c5,0.6,8.5,2,10.5,4.3c2,2.3,3.2,5.9,3.6,10.9l0.6,7.1c0.5,5.2,0.2,9.1-0.9,11.7
	c-1,2.6-2.9,4.5-5.6,5.6c-2.7,1.2-8.3,2.1-16.9,2.9L6.7,110L0,33.4z M22.5,44.7l1.5,17c0.9-0.1,2.7-0.3,3.2-0.3
	c2.1-0.2,3.4-0.8,3.9-1.8c0.5-1,0.5-3.8,0.1-8.3c-0.2-2.4-0.6-4.1-1.1-5c-0.6-0.9-1.2-1.5-2-1.7C27.3,44.4,24.7,44.5,22.5,44.7z
	 M25,73.6l1.9,21.4c3-0.4,6-1.1,6.8-1.9c0.8-0.9,1-2.8,0.7-5.9l-0.6-7.1c-0.3-3.3-0.8-5.2-1.6-5.9C31.3,73.6,28.2,73.4,25,73.6z"/>
</svg>
